<?xml version="1.0" encoding="UTF-8"?>
<svg id="Layer_1" xmlns="http://www.w3.org/2000/svg" version="1.1" viewBox="0 0 1080 1080">
  <!-- Generator: Adobe Illustrator 30.2.1, SVG Export Plug-In . SVG Version: 2.1.1 Build 1)  -->
  <defs>
    <style>
      .st0 {
        fill: #fff;
      }
    </style>
  </defs>
  <rect x="201.2" y="201.2" width="677.6" height="677.6" rx="88" ry="88"/>
  <path class="st0" d="M410.4,419.9c12.2,0,24.4,1.6,36.2,4.7,12.8,3.5,25,8.8,36.2,15.8,3.9,2.4,9.1,1.2,11.5-2.7,2.4-3.9,1.2-9.1-2.7-11.5-24.4-15.2-52.6-23.1-81.3-23-4.6,0-8.3,3.7-8.3,8.3s3.7,8.3,8.3,8.3h0Z"/>
  <path class="st0" d="M410.4,477.2c12.2,0,24.4,1.5,36.2,4.7,12.8,3.4,25,8.8,36.2,15.8,3.9,2.4,9.1,1.2,11.5-2.7,2.4-3.9,1.2-9.1-2.7-11.5-12.6-7.8-26.3-13.8-40.7-17.7-13.3-3.5-26.9-5.3-40.7-5.3-4.6,0-8.3,3.7-8.3,8.3s3.7,8.3,8.3,8.3h0Z"/>
  <path class="st0" d="M410.4,534.5c12.2,0,24.4,1.6,36.2,4.7,12.8,3.5,25,8.8,36.2,15.8,3.9,2.4,9.1,1.2,11.5-2.7,2.4-3.9,1.2-9.1-2.7-11.5-24.4-15.2-52.6-23.1-81.3-23-4.6,0-8.3,3.7-8.3,8.3s3.7,8.3,8.3,8.3h0Z"/>
  <path class="st0" d="M410.4,591.8c12.2,0,24.4,1.6,36.2,4.7,12.8,3.4,25,8.8,36.2,15.8,3.9,2.4,9.1,1.2,11.5-2.7,2.4-3.9,1.2-9.1-2.7-11.5-12.6-7.8-26.3-13.8-40.7-17.7-13.3-3.5-26.9-5.3-40.7-5.3s-8.3,3.7-8.3,8.3,3.7,8.3,8.3,8.3h0Z"/>
  <path class="st0" d="M592.7,441.7c1.6,0,3.1-.4,4.4-1.3,11.2-7,23.5-12.3,36.2-15.8,11.8-3.1,24-4.7,36.2-4.7,4.6,0,8.3-3.8,8.3-8.3,0-4.6-3.7-8.3-8.3-8.3-13.7,0-27.4,1.8-40.7,5.3-14.4,3.9-28,9.8-40.7,17.7-3.2,2-4.7,5.8-3.6,9.4,1,3.6,4.3,6.1,8,6.1h0Z"/>
  <path class="st0" d="M592.7,498.9c1.6,0,3.1-.4,4.4-1.3,21.6-13.4,46.5-20.5,71.8-20.5h.7c4.6,0,8.3-3.7,8.4-8.3,0-4.6-3.7-8.3-8.3-8.4-13.7,0-27.4,1.8-40.7,5.3-14.3,3.9-28,9.8-40.7,17.7-3.2,2-4.7,5.8-3.6,9.4,1,3.6,4.3,6.1,8,6.1h0Z"/>
  <path class="st0" d="M592.7,556.2c1.6,0,3.1-.4,4.4-1.3,21.7-13.5,46.9-20.6,72.5-20.5,4.6,0,8.4-3.7,8.4-8.3,0-4.6-3.7-8.4-8.3-8.4-13.7,0-27.4,1.8-40.7,5.3-14.3,3.9-28,9.8-40.7,17.7-3.2,2-4.6,5.8-3.6,9.4,1,3.6,4.3,6.1,8,6.1h0Z"/>
  <path class="st0" d="M592.7,613.5c1.6,0,3.1-.4,4.4-1.3,11.2-7,23.5-12.3,36.2-15.8,11.8-3.2,24-4.7,36.2-4.7,4.6,0,8.4-3.7,8.4-8.3,0-4.6-3.7-8.4-8.3-8.4-13.7,0-27.4,1.8-40.7,5.3-14.3,3.9-28,9.8-40.7,17.7-3.2,2-4.7,5.8-3.6,9.4,1,3.6,4.3,6.1,8,6.1h0Z"/>
  <path class="st0" d="M782.1,376.5h-45.6v-27.2c0-4.2-3.2-7.8-7.3-8.3-38.8-4.7-78.2-.6-115.3,11.7-26.5,9-51.5,22.1-73.8,39-22.4-16.9-47.3-30-73.8-39-37.1-12.3-76.4-16.3-115.3-11.6-4.2.5-7.3,4-7.3,8.3v27.2h-45.6c-4.6,0-8.3,3.7-8.3,8.3v289.2c0,3.9,2.6,7.2,6.4,8.1l242.1,58.4c1.3.3,2.6.3,3.9,0l242.1-58.4c3.8-.9,6.4-4.3,6.4-8.1v-289.2c0-2.2-.9-4.3-2.4-5.9s-3.7-2.4-5.9-2.4h0ZM619.1,368.5c32.4-10.8,66.6-14.7,100.6-11.7v278c-60.9-12.2-124,4-171.4,44.1v-272.8c21.4-16.3,45.3-29,70.8-37.6h0ZM360.2,356.8c34-3.1,68.2.9,100.6,11.7,25.5,8.6,49.4,21.2,70.8,37.6v272.8c-36.7-31-83.2-48.1-131.2-48-13.5,0-26.9,1.3-40.2,3.9v-278ZM773.7,667.5l-233.7,56.4-233.7-56.4v-274.3h37.3v252c0,2.6,1.2,5,3.2,6.6,2,1.6,4.7,2.1,7.2,1.5,64.7-16.5,133.4,2.7,180.1,50.4,0,0,.2.1.3.2.7.7,1.5,1.3,2.4,1.7h0c2,.8,4.3.8,6.3,0,.9-.4,1.7-1,2.4-1.7s.2-.1.3-.2c46.7-47.7,115.4-67,180.1-50.4,2.5.6,5.2,0,7.2-1.5,2-1.6,3.2-4,3.2-6.6v-252h37.3v274.3Z"/>
</svg>