<?xml version="1.0" encoding="UTF-8"?>
<svg id="Layer_1" xmlns="http://www.w3.org/2000/svg" version="1.1" viewBox="0 0 1080 1080">
  <!-- Generator: Adobe Illustrator 30.2.1, SVG Export Plug-In . SVG Version: 2.1.1 Build 1)  -->
  <defs>
    <style>
      .st0 {
        stroke: #000;
        stroke-miterlimit: 10;
        stroke-width: .5px;
      }
    </style>
  </defs>
  <g>
    <path class="st0" d="M551.3,882.9h-25.1c-9.4-2.3-15.8-8.2-23.5-14.2-21.9-16.9-46.9-28.2-73.1-36.9-39.3-13.2-79.7-19.5-120.7-22.6-7.3-.6-12.3-6.5-12.6-13.9l-1.5-46.8-7.9.7c-4.3,18.7-5.3,47.1-27.5,51.8-19,4-32.6-10.4-36.2-29.7l-5.3-28.9c-1.7-9.3-6.1-14.7-13.4-19.7-32.8-22.5-46.8-64.2-44-104.2,3.8-55.4,26.7-110.5,58.6-154.8-22.5-9.1-41.7-27.5-43.6-52.5s2.9-19.3,10.7-25.3c4.5-3.4,9.8-5.5,15.2-7.5,15.6-5.7,21.3-21.1,27.6-35.6,4.6-10.7,9.2-20.9,15.5-30.5,12.5-19.1,30-32.6,51.6-38.8,10.5-3,21-4.5,32-3.9,23.6,1.4,46,10.8,63.9,26.4,10.8,9.4,15,22.4,12.7,36.3,10.5,15.4,12.7,28.8,14.8,47.2,2.4,21.8,19,24.1,14.4,40-1.3,4.5-5,8.8-10.2,10.7l-8.9,3.4-5.5,15c52.9,13.5,105.6,44.3,129.6,97.1,26.4-54.2,88-84.8,142-99.3-1.3-15-3.5-29.5-7.5-44.2h-10.4c-10.6.3-18.9-7.5-19.6-18.2-1.7-25.4,2.5-48.9,6.1-75.3-9.3-.2-18.1-2.4-24.5-9.3-6.8-7.3-7.7-17.5-3.8-26.8,3.6-8.6,10.6-14.2,18.4-19.6-7.4-6.8-7.6-17.4-1.1-25,12.6-14.8,42.8-17.8,61.8-16.4,2.3-8.5,9.1-14.5,17.9-14.6,4.4,0,9.3-.4,13.6.2,35.3,5.1,64.7,35.9,81.8,66.4,17.8,31.8,26.8,62.2,35.2,97.7,10.4,43.8,24.3,67.2,38.1,108.1,33.1,98.3,41.3,203.5,15.9,304.8-3.2,12.8-11,22.8-24,26.4-20.2,5.5-41.6,6.8-62.3,3.7-4.7-.7-9-3.9-10.8-6.8-5.3-8.7.8-18.4,7.8-25.9l-5.8-43.3c-.7-5-2.3-10.4-5.7-13.7-4.7-4.8-11.5-4.8-17.7-2.8l-2.4,83.9c-.2,7.4-5.3,13-12.3,13.5-62,4.4-130.3,17.9-183.7,52-16.7,10.7-16,16-34.5,21.7ZM715.5,583.6c-1.2-.4-4.3.6-4.9,1.7-3,5.8,10.3,11.9,9.9,17.4-.7,9.1-36.3,6.6-35.5,12.7.1.9,1.3,2.5,2.1,3,12.5,6.5,24.4-1.2,25,7.7.2,2.8-2.3,5.4-5.4,5.5s-22.2.6-21.2,5.9c.2.9,1.6,2.7,2.6,3,15,5.8,27-3.5,28.7,5.4,1.5,7.9-13.8,5.3-18.2,11.8,8,3.9,16.2,4.5,24.9,3.8,29-2.3,57-11.8,82.2-26.7,30.7-18.1,53.7-45.9,66.4-79.8,1.1-3,3.8-4.3,6.3-3.6,1.8.5,3.9,3.7,3.1,6.2-11.4,33.2-33,60.8-61.4,80.2-10.9,7.5-21.5,13-34.1,18.3l-1.6,44.7c15.5-3.6,29.7,5.6,32,21.6l7,47.9c1.3,8.8-12.2,14.8-9.2,20.8,1.1,2.2,6.3,3.5,9.1,3.7,18,1.5,36.1.5,53.2-4.5,8.5-2.5,13.5-8,15.7-16.5,25.9-99.3,17.7-219.3-19.5-314l-20-50.8c-7.3-18.5-11.7-37.1-16.4-56.5-9.7-39.9-24-80.6-51-111.5-16.4-18.8-42.2-37.2-67.5-34.1-10.4,1.3-5.8,11.4-9.6,14.1-3.9,2.8-23.5-3.7-48,5-6.4,2.3-19.8,9-15.6,16.9,3.2,6.1,12.4,2.1,13.1,8.8s-14.6,5.4-25.4,21.4c-4.4,6.5-4.6,15.5,1.6,20.4,10.4,8.2,22.4,2.2,25.4,6.4.6.9,1.3,3.6,1.1,4.9-3.4,21.4-9.4,59-6.8,79.3,1.3,10.3,13.6,8,20.3,7,3.8-.6,7.3,1.5,8.3,5.5l4.8,18.9c17.9.8,34.1-3.6,45.5-19.3,1.4-1.9,4.7-2.5,6.4-1.4s2.7,4.8,1.4,6.9c-11,17.6-32.2,24.6-51.6,24.1l2.3,18c13.8-2.8,27-5.2,41.1-6.4,5-.4,9,2.5,9.6,7.6l2,16.7,11.8.4c4.6.2,8.5,4.3,9.1,9l2,16.1c6.4,1.7,14.1-1.3,19.6,4.4,2.2,2.3,3.7,6.7,3.6,10.4l-1.5,54c16.6-17.5,25.1-40.6,28.1-64.5.4-3.4,2.5-5.3,5.5-5,2.1.2,4.3,2.7,4,5.7-4.1,46-33.1,89.1-78.3,99.8-14,3.3-19.2-4.3-31.9-8.9ZM306.2,385.1c2.9-10.6,10.9-18.5,21.5-19.8,18.7-2.3,33.5.5,51.1-12.4,7.3-5.4,13.2-12.4,15.5-21.4,2.4-9.5.3-18.8-6.9-25.4-31.3-29.1-77.5-36-113.4-10.5-17.7,12.6-27.6,31.5-35.8,51.4-8.6,20.7-15.8,36.4-38.6,43.1-9.5,2.8-15.4,11-14.3,21.3.9,8.2,4,15.5,9.1,22,17.8,22.6,50.6,32.8,76.6,16.1,25.3-16.2,28-39,35.1-64.5ZM369.6,638.5c-3.2.1-5.9-2-5.8-5.2.1-7.6,10.5-2.8,21.4-9.6s1.9-2.7,1.4-3.4-2.3-1.8-3-1.8l-24.2-.7c-1.9,0-4.7-1.9-5.5-3.2s-.5-4.9.4-6.4l4.8-7.7c.5-.9.4-3.7-.4-4-7.7-3-14.8,15-30.5,13.3-35.6-3.8-65.5-33.2-74.5-68-.7-2.7,1.2-5.9,3.1-6.5s5.1.6,6,3.5c5.3,16.7,14.1,32,28.1,43.4l-2.5-79.6c-.2-7.4,4.4-13.7,11.4-14.1l11.5-.6,2.6-15.1c1.1-6.5,6.3-10.6,12.6-10.6,16.2,0,31.5,2.8,47.6,4.4,6.6.7,13.2-5.1,17.5-9.5-14.9-.6-28.1-5.9-36.9-17.6-1.9-2.5-1.5-6.1.6-7.7,2.3-1.6,5.1-.6,6.8,1.6,9.3,11.1,22.5,15.1,36.5,12.5,3.8-4.8,6.6-20.4,10.1-21.5l10.9-3.5c1.9-.6,4.4-2.9,4.6-4.6,1-8.9-12.8-11.5-15.3-38.2-1-11.5-2.8-22.8-9.1-33.3-16.2,25.7-39.8,29.5-66.5,30.2-8.7.2-15.8,4.7-17.9,13.6l-4.5,18.5c-9.3,39.3-40.5,67.5-81.4,59.6-32.7,44.6-57.4,102.8-59.4,159-.9,37.1,13.9,72.2,44.8,92.2,16.3,10.5,12.2,41,21.8,62,4.2,9.2,14,14.2,23.2,10.3,6.2-2.7,10.1-9.1,11.6-15.8l6.5-29.9c.6-2.6,3-4.5,5.2-5.5l11.5-1-2.2-68.7c-36.3-11.9-63-31.7-83-65.6-1.6-3-1.1-6.6,1.9-8s5.6-.2,7,2.4c20.1,36.8,55.1,57.7,94.6,65.6,17.6,3.5,48,7.2,63.8-.8.5-.3,1.6-2.1,1.1-2.4s-1.6-1.1-2.1-1.2l-9.6-1.5c-3.1-.5-5.3-3.7-4.7-6.1,1.9-8.4,13-.9,24.9-7.1,1-.5,2.3-2.2,2.4-3.2.9-4.8-16.2-3.1-19.3-3ZM581.1,519.2c44.8-32.9,97.5-50.1,151.9-55.9.4-5.2,0-9.8-1.5-15.4-50.3,4.7-112.7,25.7-151,60.4-12,10.9-23,22.7-30.1,38.1,10.3-9.9,19.3-18.9,30.8-27.3ZM525.4,542.4c-23.1-45.4-75.9-74-121.5-84.1l-11.9,12.1c50.9,12.4,96,33.7,133.4,72ZM517.4,549.2c-24.7-27-60.3-47.1-93-58.6-28.1-9.9-70.4-19.1-100.3-17.6-1.3,5.8-1.9,10.5-2,15.9,64.8,4.3,130.8,24.8,183.9,63.1,4.2-.4,7.6-1.1,11.4-2.7ZM756.1,488.8l-1.5-16.1c-65.1-.2-146.9,27.9-192.9,76.9,3.1,1.5,6.9,2.3,10.3,2,54.3-38.4,118.2-58.5,184.1-62.7ZM384,670.4c-18.8,12.8-60.1,6.1-81.2,1.6l3.8,122.3c0,2.6,2.9,4.7,5.2,4.9,65.1,4.7,134.9,19.3,190.9,56.4l-2.8-151.4-1.3-145.2c-55.3-39.4-128.1-59.7-194.4-60.5-1.6,0-3.9.6-4.7,1.3s-1.4,2.9-1.3,4.4l3.1,85.4c9.2,5.9,18.3,9.2,28.8,10,6.4.5,11-8.3,21.8-12.8s11.8-.6,15,3.8,3.3,10.6,0,16.8l14.4.4c7.5.2,15.3,4.1,16,12.2.3,3.4-2,7.2-3.8,10.1,2.3,2.4,5.4,5.9,5.7,8.7.9,9.1-4.4,12.5-11.3,16.8,2.4,5.5,1.1,11-3.7,14.7ZM679.1,646c-5.7-5.9-3.8-14.1,2.1-19-4.5-3.4-6.9-7.4-6.3-12.5,2.1-17.4,32.7-12.1,30.3-15.9-3.1-4.9-7.2-10.7-3.3-18,2.7-5.1,8.6-7.9,14.7-6.8,10,1.7,19.7,10.4,25.5,9.4,12.1-2.1,22.6-7.4,32.7-14.4,1.5-1,2.9-3.9,3-5.8l2-59.7c0-1-.5-3.5-1.3-3.7l-3.2-.9c-67,.2-140.4,20.8-195.9,60.4-.1,99.1-1.4,196.7-4,296.7,23.5-15.1,46.9-26.4,72.7-34.7,38.7-12.4,78.2-19.4,118.5-21.9,2.4-.4,5-2.2,5.1-5l4.1-133.5c-24.7,7.5-53,15.9-78,8.4-8.4-4.7-9.9-8.7-7.8-17.4-4.1-1.2-8-2.8-10.9-5.8ZM561.5,560.4c-15.1-3-29.9-3.3-45.1-.3,13.5,8.2,31.3,9.1,45.1.3ZM565.6,860.6l3.9-292.9c-17.6,12.5-43.5,11.9-61-.2l3.8,292c0,3.3,1.2,5.6,3.6,7.3,21.2,15,49.5,3.5,49.6-6.2Z"/>
    <path class="st0" d="M710.1,341.9c-10.9.5-4.5,15.4-11.4,16.7-3,.6-5.7-1.3-6-4.7-.6-7.4,2.1-15.7,8.5-19.6,10.4-6.4,22.4-.9,27.3,10,1.3,2.9,1.1,6.5-1.5,7.8-8.2,4.3-7-10.6-16.9-10.2Z"/>
    <path class="st0" d="M363.2,397.3c-7,2.9-7.4,11.7-13.6,9.1s-3.4-4.2-2.3-6.6c5.3-11.7,18.2-17.2,27.8-10.8,4.2,2.8,8.1,7.8,7.9,14.3,0,1.8-2.7,4.2-4.3,4.2-2.5,0-4.6-1.9-5.2-4.5-1.2-4.7-5-7.9-10.3-5.7Z"/>
  </g>
  <g>
    <path class="st0" d="M512.3,411.8c.6-.8,1.3-1.5,2.1-2,3.5-2.3,8.7-1.9,11.9.7,1.7,1.5,2.8,3.6,2.8,5.8,0,3.7-2.1,7.3-5.2,10.6-2.9,3.3-6.8,6.4-10.7,9.6-.6.5-1.5.5-2.1,0-3.9-3.2-7.7-6.3-10.7-9.6-3.1-3.4-5.2-6.9-5.2-10.6s4.9-8,9.4-8,5.7,1.2,7.6,3.5ZM516.3,412.8c-1,.6-1.7,1.6-2.5,2.9-.7,1.1-2.2,1.2-2.9,0-1.5-2.5-3.1-3.9-6.1-3.9s-6,1.6-6,4.5,1.7,5.5,4.3,8.3c2.5,2.7,5.9,5.6,9.3,8.3,3.5-2.7,6.8-5.6,9.3-8.3,2.6-2.8,4.4-5.7,4.4-8.3s-.6-2.2-1.6-3c-2-1.7-5.8-2-7.9-.5Z"/>
    <path class="st0" d="M512.2,438.7c-.8,0-1.6-.3-2.3-.8-3.8-3.1-7.8-6.4-10.8-9.7-3.8-4.2-5.7-8.1-5.7-11.8,0-6.1,5.8-9.8,11.2-9.8s5.5.8,7.6,2.6c.4-.3.8-.6,1.2-.9,4-2.7,10.2-2.3,14,.9,2.2,1.9,3.5,4.5,3.5,7.2s-1.8,7.6-5.7,11.8c-3.1,3.4-7,6.6-10.9,9.8-.6.5-1.4.8-2.2.8ZM504.7,413.6c-1.8,0-4.2,1-4.2,2.7s1.3,4.3,3.8,7.1c2.2,2.4,5.1,4.8,7.9,7.2,2.6-2.1,5.7-4.7,7.9-7.2,2.6-2.8,3.9-5.2,3.9-7.1s-.5-1.3-1-1.7c-1.5-1.2-4.3-1.4-5.8-.4h0c-.6.4-1.2,1.1-1.9,2.4-.8,1.1-1.9,1.7-3.2,1.7-1.2,0-2.3-.7-2.9-1.7-1.4-2.3-2.5-3-4.6-3ZM512.1,414.4c0,.1.2.2.2.4,0,0,0,0,0,0l-.3-.3Z"/>
  </g>
  <path class="st0" d="M566.8,376.2c1.4-1.1,3-1.8,4.6-2.2,7-2.1,15.6,1.5,19.6,7.5,2.2,3.4,3,7.5,1.9,11.2-1.8,6.2-7.2,11.1-14,15.1-6.6,3.9-14.6,7.2-22.7,10.4-1.3.6-2.8,0-3.6-1.1-4.9-7.3-9.9-14.7-13.2-21.7-3.5-7.3-5.3-14.4-3.5-20.6,2.5-8.3,12.2-10.8,19.7-8.5,6,1.9,9,5,11.1,9.9ZM573,379.9c-2,.5-3.7,1.7-5.7,3.6-1.7,1.4-4.3.8-5-1.6-1.3-5-3.2-8.2-8.3-9.8-4.3-1.3-10.9-.5-12.3,4.4-1.3,4.4.2,10.1,3.1,16.2,2.9,5.9,7.2,12.5,11.4,18.9,7.2-2.8,14.2-5.8,19.7-9.1,5.9-3.4,10.2-7.2,11.5-11.6.6-1.9,0-4-1.2-6-2.6-3.9-8.8-6.4-13.1-5.1Z"/>
</svg>