<?xml version="1.0" encoding="UTF-8"?>
<svg id="Layer_1" xmlns="http://www.w3.org/2000/svg" version="1.1" viewBox="0 100 1080 760">
  <!-- Generator: Adobe Illustrator 30.2.1, SVG Export Plug-In . SVG Version: 2.1.1 Build 1)  -->
  <defs>
    <style>
      .st0 {
        fill: #fff;
      }

      .st1 {
        fill: #4a4a4a;
      }
    </style>
  </defs>
  <g>
    <path class="st1" d="M448.6,854.7H190.1s-10.4-1.6-10.4-1.6l-72.3-.2c-1.3,0-3.2-1.4-3.2-2.4s1.6-2.9,2.6-2.9l19.7-.4c-9.1-5.6-16.7-11.1-22.5-20-12.1-18.6-37.7-69.8-13.2-86.2,12.2-8.2,24.3-2.7,36.2,5.8l31.8-17.7c15.1-8.4,32-12.7,48.5-17.3l3.4-18.6-35.8-8.7c-4.5-1.1-10.4-2.5-12.7-6.6l-13.7-24.2c-25.3,4.1-42.3-25.1-42.2-47.4,0-7.6,3-13.9,8.6-18.8l-27.4-49.9c-2.5-4.6-2.7-10.2.2-14.3,2.4-3.4,7.6-6.3,12.6-5.2l36.8,8.1,51,11.8c5.6,1.3,9.4,4.6,12,9.6l12.5,24.2c24.2-3.2,40.3-15,58.2-31.4-28.7-9.4-67.1-35.7-54.4-70.2-17.2-11.4-21.2-36.5-12.3-54.3,3.3-6.5,9.8-9.9,17.4-9.5,3.2-19.7,10-38.1,22.2-54.3-4.6-6.7-7.2-13.6-7.4-22.1-.4-16.6,12.8-31.3,29.7-31,10.3.2,18.1,7.2,23.4,15.7,20.9-8.7,42.6-11.9,64.9-9,5.5-9.9,14.7-15.4,25.8-16.8,13.1-1.7,25.8,3.8,34.7,12.9,9.2,9.5,12.8,22.5,11.1,36.1,21,20.7,42.2,56.7,53.3,83.9l32.7,79.7c15.7,38.3,34,104.5,39.5,143.7,2.3-3.2,2.3-4.5,1.5-6.9-3.9-11.7,0-24.1,8.2-33.7-6.8-11-4.2-24.6,5.9-32.8-2.1-9,.8-17.8,8-23.9-3-10.2,0-20.8,9.3-27.3-5.4-11.5,0-23.4,9.9-29.5.1-6.4,1.6-13.2,8.5-15.9-3.8-11.5-.6-23.2,8.4-31.5-3.7-10.5.6-21.1,10.7-26.8-1.7-9.7,2.7-18.5,11.6-23.1-3.6-12,1.4-24,12.3-29.1-3.3-16.7,7.3-31.5,22.5-36.9-1.8-11.7,6.6-20.8,18.1-20.9.6-9.1,6.4-16.1,15.2-17.1-2.2-24.1,3.1-46,21-62.2,2.8-2.6,7.5-3.1,11.3-2.1,8.2,2.4,8.1,20.6,7.5,27.5l-1.8,19.8c5.6-6.8,11-12.9,18.2-17.1,16.9-9.7,43.6-6.4,54.2,12.7l11.2-13c1.9-2.2,5.8-3.5,8.6-3,2.3.5,5.2,3.3,5.8,6.3,2.5,14-8.9,33.5-18.8,43.3,8,1.8,14.5,5.2,18.5,11.6,3.7,6,3.3,13-1.5,18.2,3.5,3.7,5.4,7.9,5.2,12.6-.2,6.8-4.1,11.2-11,13.5,10.4,13.2,25.1,22.5,34.1,33.5,5.6,6.9,4.5,14.4,3.1,22.2-1,5.7-.7,11.3-3.6,16.4-2.5,4.3-6.4,5.7-10.7,7.8-3.7,1.8-7.1,5.4-11.6,5.9-14.9,1.9-20.6-7.8-39.2-8.8l-19.8-1.1c.2,8.3-8,11.3-12.4,14.7-1.9,6.6-2.4,15.5-11.2,18.2,3.6,11.8.8,23-6.7,31.5,2,9.9-.3,19.7-8,25.8,5.2,8.8,2.8,17.6-.9,25.5,1.2,5.2,4.2,12.1-1.5,17.6l8.6,11.6c5.1,6.9,7.9,12.7,12.3,19.1,4.4,6.5,13.7,11,11.5,21.7,7.1,1.1,8.5,7.5,12.1,11.5,2.3,2.6,6.6,4.4,8.2,8,21.5,2.3,47.4,2.2,62.2,20.4l1,1.2c.1.2,1.1-.5,1.2-.7l32.5-88.9c1.8-5,5.7-7.6,10.7-8.8l83.4-19.3c2.7-.6,5.7-.3,7.4,1.2,1.5,1.4,3.2,5.4,2.3,8.1l-36.6,109.4c-1.6,4.7-4.3,7.5-6.6,11.3-2.3,3.8-1.6,7.9-7.3,9.5l-16.9,4.8c8.3,4.6,12.7,11.3,13.2,20.5,10.7,4.1,18.2,14.7,14.1,26.6,10,5.8,6,16.1,7.2,23.9s.9,13.4.4,20.1c1.4,16.8,21.5,44.3,27.5,56.8,1.8,3.8,1.7,7.9,0,11.9l12.8.2c1.2,0,3,2,2.9,3.1s-2.1,2.5-3.7,2.6c-11.7.5-23.4-1-34.8.7s-13.6-.5-21-.5h-233.9c0-.1-14,.1-14,.1-7.8.1-15.6-.5-23.2.1-6.1.5-11.2-.4-17.4-.4h-193.7s-14.9,1.6-14.9,1.6ZM720.7,301.2c2.8,9.3,9.8-15.6,9.7-14.2l1.6-22.2c.2-3,4.3-37.9-4.4-30.5-27.4,23.7-17.1,68.6-13,71.1.5.3,1.4-1.7,1.2-2.3-2.7-12.2-3.9-26.4-.4-38.5s7.1-22.8,12.9-22.6c6.2.3-18.3,22.8-7.5,59.1ZM746,300.5c11.4-18.8,28.6-45.3,53.2-34.6-12.6-10.7-30.4-9.6-42.9,1.2-9.1,7.9-15.5,18.1-20.6,29.1l10.3,4.4ZM811.8,297.3c7.5-7.5,12.5-15.9,16.3-24.9,1-3.8,1.8-7.5,1.2-11.2-8.7,10.1-16.3,19.6-27.1,26.9,4,2.8,6.6,5.5,9.6,9.2ZM788.2,286.9c.7-5.1-.1-10.4-3.8-14.8-5.1,1-9.6,4-13.4,7.9,4.4,2.4,7,5,9.2,9.2l8-2.3ZM800.8,278.3c-.8-1.5-2.6-3-4.6-3.9l1.1,7c1.4-.4,4-2.1,3.5-3ZM786.3,702.4l-20.1-1.4c-1.1-.7-3.4-2-4.8-2.7l-17,5.6c-2.2,8.7-10.4,12.8-19,10.4-5.5,5.4-13.2,6.4-19.8,1.8-9.5,5.2-20,.8-24.6-8.8-15.1,3.6-25.6-6.4-29.2-20-8.9-.5-15.7-6.8-16.2-16.1-6.1-1.3-10.6-5.1-13.2-10.8s-3.9-18.3,1.6-18c1,0,2.6,1.7,2.7,2.8.2,7.8.6,18.5,10.8,19,8,.4,2.9,8.5,7.7,13.3,5.2,5.1,12.8-.6,13.6,6.8.6,6.5,4.3,12,10,14.9,9.9,5.1,16.2-4.8,18.2,3.4,1.6,6.7,9.1,11.1,15.1,7.4,1.2-.7,2.7-1.8,3.6-2.2,2.5-1.1,5,5.5,10.6,4.4,4.3-.8,5-5.8,7.5-6.2,3.1-.6,5.3,3.8,9.6,1.7,6.3-3.2,1.3-8.5,8.6-10.9s2.6-1.5,2.6-2.4c.2-3.6-3-3.7-2.5-7.6.4-2.9,5.1-2.9,5.5-6.5.1-1.1-1.3-3.3-2.4-3.9-6.6-3.7-.3-8.6-2.4-10.7s-5.7-.6-8-2.4-1.1-2.9-1.2-3.9c-.7-7.5-10.8-2.6-12.9-5.8-1.8-2.7,2-8-2.5-13-3.9-4.3-9.6-2.1-10.7-5.6-.9-3,3.6-6,1.3-11-1.9-4.1-7.5-4.5-9.4-6.8-1.6-2,4.9-10-3.6-17.7-7.8-7.1-18-5.8-16.3-8.8,2.3-4.2,28,3.5,25.5,22.8,7.9,2.7,12.4,9.5,10.9,17.8,7,2.8,12.1,8.1,11.6,16.3,7.1-.4,9.9,4.3,13.8,8.4s9.7,4.1,9.2,10.9l19.8-4.1c-1.8-6.8-9.1-5.6-7.8-11.6,1.7-7.8-1-15-7.8-19-2.3-1.4-3.6-4.1-2.6-6.9,4.7-13.4-8.6-16.6-9.7-20s.2-3.8.7-5.2c4.1-9.9.5-20.7-7.1-28.1-7.4-7.2,7.4-9.7,0-18.9-.7-.9-1.9-3.3-1.7-4.4s1.6-3,2.6-4.2c8.5-9.3-3.5-20.8.2-23.6,6.6-4.8,9.6-12.3,8.1-19.9-.3-1.6-.6-5.1.3-6.2,16.3-17.4,0-31.4,8.8-34,6.1-1.7,8.6-7.8,6.9-13.3-3-9.2,12-2.5,14.2-14.6-8.4-1.9-15.2-6.5-20.1-13.7-3.9-5.8,3.7-6.7,1.4-16s-12.4-7.8-7.9-13.3c6-7.4-2.6-10.2-3.2-14.4-.1-.9,1.1-2.8,2.1-3.2,19.1-7.5,8.4-28.3,14.7-29.5,5-.9,5.6,5.1,12.2,3.6,4.8-1.1,3.5-8.5,8.3-8.5,5.3,0,5.3,9.5,16.4,11.2,9.6,1.5,6.7-8.8,11.4-8.9s5.8,10.9,17.1,10.3c3.4-.2,6.1-3,5.5-6.8-1.2-7.9-7.8-7.7-8.2-12-.5-4.2,6.4-3.9,7.1-8.5s-.8-4.6-1.8-6c-10.3-14-27.6-3-26.5-12.7.7-6-3.8-10.2-9.8-10.1-9.9.2-15.6,7.2-18.4,4s-1.6-11.1-10-11.7c-6.3,7.9-11.3,16.6-15.8,25.5,17.5,20.8,9.2,51.3-11.3,65.5s-24.6,7.5-35.1.2c-8.5-5.9-13.4-15-14.8-25.3-2.2-16.5,5.1-32.2,17.8-42.6l-3.7-12.8c-12.1,2-7.4,13-9.9,16.7s-9.3-1.7-15,4.8c-5.8,6.7,3,14.4-4.9,16.2-12.4,2.8-21.6,14.5-20.1,27.2.3,2.2,2.2,7.1-.7,8.1-10,3.4-15.3,14.1-10.4,23.6s.7,3.5,0,4.3-2.1,1.7-2.9,1.9c-8.1,2.5-12,9.6-9.3,17.7.8,2.3-1.9,4.7-3.9,5.7-7.5,3.8-10.8,11.3-7.3,19.1.8,1.9,0,4.9-1.5,6.3-8,6.6-10.7,16.5-6.9,26.2s-.3,5.2-2.8,6.1c-11,4.2-.5,13.3-7.5,16.1-9.4,3.7-12.7,13.6-8.2,22.3,1.4,2.7.2,5.1-2.1,6.6-7.3,4.7-10.2,13.3-7.1,21.5,2.6,6.7-12.9,7.8-7.8,24.1.7,2.1-.9,4.7-2.6,6-8.1,6.1-9.9,16.7-4.3,25.1,1.3,1.9.6,4.9-.9,6.5-7.5,8.1-10.5,19.5-6,29.8s1,4.8-.3,6.6c-4.4,5.5-3.9,12.1.5,17.2,2.4,2.7,2.1,5.2.2,8.1-4.6,6.7-6.7,15.4-4.8,23.6,2.3,9.8,11.8,11.1,7.7,19.7-6.7,14.1-7,29.6,7.5,38.8s1.6,5.7.9,7.9c-4.2,11.8-.5,23.7,10.4,29.8,6.3,3.5,0,12.2,9.8,26,4.2,5.9,10.5,10,17.7,11.1,5.2.8,8.9,3.4,12.3,7.3,8,9.1,19.6,11.5,30.5,6.3,11.3,8.8,20,4.4,31.1-.3,6.9-3,17.9,12.4,35,.2,3.1-2.3,6.5-2.6,9.8-.4,8.3,5.7,19.1,3.2,24.9-5.1,1.1-1.6,3.7-2.8,5.5-2.2,11.5,4,22.4-.8,29.1-10.9,1-1.5,3.7-5.2,5.4-4.8,8,1.9,14.5,1.1,20.9-3.9,12.1-9.4,8-18.6,17-18.2,6.4.3,12.2-1.8,15.9-7.1,7.8-11.2,4.7-18.9,10.6-17.9,4.3.7,1.4,8,8.8,14.2s12.7-1.2,14.7,1.3c2.4,3.1.2,8.8,5.7,12.2s10.4-5.6,13.6,1.2,3.7,4,6.5,3.8,4.4-2.3,5.4-4.9c2.6-7.1,7.8,1,10.5-6.9,1.2-.5,3.7-.7,5.3-.6,3.8.2,4.7-3.3,5.8-6.1,4.9-12.4-5.6-11.9-2-17.7s2-12-3-16.1c-2.7-2.2-3.8-4.9-3.3-8.4,1.3-9.3-4.9-17.9-13.7-19.9-5.6-1.3,1.4-14.4-12.1-16-8.3-1-7.4-9-12.8-8.2-10,1.5-18.9,7-29,6.6l-50.2-2.1c-2.6-.1-6.6,1.9-9.3,2.1-7.2.6-12.1,4.3-16,10.2s-15.8-7.3-29.5,13.3c-20-5.7-19.2,10.4-24.3,10.1-.7,0-1.5-2.2-1.3-3.1,2.4-9.5,12.7-16.9,22.9-13.7,6.7-9.8,17.4-14,28.2-12.3l7.6-7.5ZM334.3,589.7c10.4-7.1,18.6-15,26.8-23.6l14.8-15.7c.9-.9,3.9-.8,4.8-.1s1.6,3.9.8,4.9c-9,11.4-18.4,21.5-29.1,31.1-28.6,25.6-59.3,24.6-94.6,17.6-15.3-3-38.1-6.3-49.1,8.2,4.6,6.4,18.8,6.5,15.2,12.5-2.9,4.8-14.4-2.4-18.9-4.9-7.4,16.6,19.3,16,17.5,22.6s-2.4,2.8-3.5,2.5l-10.9-2.6c6.3,13.4,27.9,22.9,40.9,27.8,21,7.9,41.7,14,63.8,17.6,30.5,4.9,60.8-.5,86.6-17.8,24-16.1,42.3-38.1,54.9-64,1.1-2.3,3.6-3.6,5.6-3.1,8.4,2.3-11.3,28.5-13.6,33.3,30.9-8.5,63.9-29.2,82.4-55.2-9.2-32.4-19.7-63.9-32.5-95.2l-11.7-28.6c-31.4,45.4-90.3,80.1-144.1,88-1.7.2-4.2-1.4-4.3-2.7s1.2-3.4,3-3.8c41.7-8.8,80.8-28,112.5-56.4,11.5-10.3,21.1-21.2,29.2-34.2-15.4-37.4-30.3-69.9-57.4-99.6-4.5,10.7-11.8,18.6-22.9,21-1.6.3-4.5-1.1-4.5-2.4-.2-7.8,19.6-6.4,21.7-32,1.6-19.3-12-36.3-31.5-37.4s-21.4,5.3-25.9,15.9c-6.3,14.6.4,25.9-6.8,26.1-7.5.2-4.2-20-2.6-25.4-60.7-6.6-111.7,34.1-120.9,94.2,6.2-.7,10.2,1.7,13.1,6.4,3.4,5.7,3.4,12.7,3.2,19.5,4.8-.8,9.1-.2,13.5,1.8.6-12.1,6.4-23,17.1-28.6,17.6-7.9,37.5,3.7,47.8,18.9l46.3-18.9c10.8-4.4,25.8-4,30.8,8.3s-.6,4.9-2.1,5.5-4.2-.5-5.1-2.4c-4.1-8-13.1-7.1-20.2-4.2l-45.4,18.1c6.4,10.6,7.8,22.4,2,32.6-5.5,9.8-17.2,13.6-28.3,10.8-11,5-23.3,2.2-31.6-6.6s-9.1-14.6-11.5-23.6c-1-3.9-10.3-6.7-12.4-2.9-3,5.5-5.1,11.1-9.5,15.8l-14,14.8c6.8.6,29.5-1.4,31.3,5.5,2,7.6-10.5,15.9-17.6,17.1s-9.7-3.3-14.5-6.4c2.6,16.7,23.9,32,38,38.1,16.8,7.3,34.2,10.1,52.6,10.9,1.6,0,3.8,2.1,3.8,3.3-.2,7.7-28.5,1.9-33.8,1.4-4.3,10.6-9.2,20.2-14.6,30.7,23.3-6.1,45.7,1.6,65.5,15.3ZM736.8,319.8l5-12c-3-1.8-5.3-2.7-9.1-4l-3.9,12.4,8,3.5ZM249.1,345.2c10.2-11.3,20.5-19.7,33.1-26.7-2.9-5.1-8-9.2-12.7-10.2-6.5-1.4-12.4.5-17.2,4.6-9.3,7.9-10.5,22.1-3.1,32.3ZM743.3,328.5c3,11.5.7,22.1-6.7,30.8-5.3,6.3-12.9,9-21,7-6.8-1.7-12.5-7.3-14.5-15.1-3.6-14,4-32.1,19.8-34.9.2-.9.2-3.5,0-4.3-20.1,5-30.5,31.5-21.3,49.8s9.1,11.1,15.2,12.5,14.2,0,20.1-4.4c15.1-11.3,21.2-33.6,10.8-49.3-.9,1.9-2.9,6-2.4,7.8ZM725.7,357.6c8.2-4.9,12.3-15.2,10.2-24-1-4.1-4.4-7.7-7.3-8.8s-8.9-1.1-12.2,1.4c-7.5,5.8-10.5,16-6.9,24.7s9.9,10.4,16.3,6.6ZM848.1,429.2c3.4-4.1,6.2-10.3,6.1-14.8-3-2.1-15.4-12-10.4-14.9,4.6-2.7,11.9,7.4,15.4,10.1,2.6-5,.8-11.5-3.4-15.3l-19.3-17.3c-6.2-5.5-10.9-12-15-18.9l-9.8-6.1c-9.2,8.1-19.5,5.3-28-3.2-4.1,4.9-9.9,6.5-16,5.2-.6,9.7-4.5,17.4-12.1,22.8,3,4.9,2.9,9.9.6,14.6,8.3,5.5,10.1,15.7,5.5,24.1,4.5,5.5,10.7,9.6,18,10.1l23.5,1.6c21.2,1.5,28,13.5,40.8,7.3-9.7-.7-23.5-17.6-18.2-20.3s7.2,15.4,22.3,14.8ZM232.5,411.8c4.5,5.4,7.8,10.6,10,17.2,1.7-5.6-2-18.5-10-17.2ZM321,427.1c-5.6-7.2-10.3-12.4-18-15.1,5.6,5.5,9.2,10.7,12.1,18l5.9-2.8ZM220.1,426.4l.4-13.3c-10,0-13.7,10.4-14.1,18.5l13.7-5.3ZM297.2,470.2c8-3.4,12.4-10.9,13.5-19.2,1.7-14-5.7-34.4-20.4-38.1-8.4-2.1-15.4,2.9-17.5,11.1-4.3,16.5,9.1,39.2,24.5,46.1ZM236.9,437.3c-.1-6.6-2.1-13.9-7.9-18.9l-.4,20.2c1-1.2,2.7-2.8,3.9-2.8s3,.8,4.4,1.5ZM856.4,426.1c2.2-2.1,3.3-5.3,2.3-8l-2.3,8ZM291,471.5c-7.8-6.2-13.4-13.1-17.5-21.7-3.9-7.4-5.1-15.1-5.2-23.8-6.6,16.6,1.5,45.1,22.7,45.5ZM218,463.2c2.4-10.3,2.5-19.3,1.9-29.5l-13.4,5.9c.8,9.1,4,17.3,11.5,23.6ZM307,473.1c9.7,1.5,16.9-2.9,21.5-9.5,4.9-9.7,3.4-20.8-2.9-29.5l-8.7,3.5c3,13.7-.5,26.5-9.9,35.5ZM233.5,452.9l-5.1-5.2-.8,11,5.9-5.8ZM235.9,491.2c6.6.2,11.4-5.8,15-10.6-9.2-2.8-18.5-3.2-28.3-1.6,2.1,5.3,6.9,12,13.3,12.2ZM217.5,595.3l-22.9-44.8c-2.1-4.1-5.9-5.9-10.2-6.9l-84-19c-2.3-.5-5.1.2-6.4,2l85.8,19.7c6.2,1.4,10.4,4.6,13.3,10.2l21,40.5c1.2.2,3.1-.7,3.4-1.7ZM256.4,697.5c-3.2-7.8-6.3-13.9-10.1-20.2-11.1-4-21-8.6-30.5-15.2-12.3-8.6-19.7-21.9-19.5-36.9s5.2-19.7,14.6-25.5l-22.3-43.2c-1.8-3.4-4.5-5.4-8.5-6l-87.3-20c-.3.2-.4,2.8,0,3.6l28.1,51.3c25,.8,49.3,47,33,65.2l12.2,21.5c1.7,2.9,4.5,4.9,7.8,5.7l82.2,19.7ZM945.4,668.5c2.9-.8,4.6-3.6,5.8-6.4l37.9-113.1-84.1,19.3-14.4,40.7-29.9,83,84.7-23.5ZM224.4,594.2c9.7-1.6,16.3-.8,24.6-.2l21.8-42c-19.6,15.5-29.9,22.5-54.2,27.8l7.8,14.4ZM854.7,688.7c-.2.6,1.1,2.7,1.3,2.4s1.1-1.1,1.3-1.8l42.9-119.7c-2.4.8-3.8,3.4-4.8,5.9l-29.9,81.8-11,31.3ZM326.1,593.6c-19.3-12.1-41.5-18.7-63.1-8.5l-5.6,10.3c22.7,4.6,46.7,7.7,68.7-1.9ZM155.3,766.7c1.1-3.7,5.1-4,7.4-2.2,3.7,3,5.7,7.9,4.8,12.8s-3,5.2-5.8,4.7-4.3-2.7-5.9-4.7c.7,3.4,1.5,7.2.3,10.3s-4.6,2.4-7.5,1.5c3.3,14.3,13.8,45.2,26.1,52.6,6.1,3.6,13.3,5.2,20.7,5.1l200.4-1c15.8,0,28.2-17.7,32.8-30.6,8-22.4,2.7-46.2-12.7-63.3-9.8-10.8-22.5-16.8-36.3-21.1s-2.1-2.1-2-2.9,2.4-1.6,3.3-1.3c15.6,4.7,30.2,12.3,40.7,25,16.9,20.4,19.5,48.9,8.4,72.7-4.5,9.6-11.3,15.8-20.3,22.1,35.9.2,58,4,86.7-19.3,38.7-31.3,50.7-87.3,49.7-135-.7-34.5-6-67.8-15.2-101.6-22.9,27.8-57.8,48.5-92.4,54.7-29.4,35-69,55.8-115.4,51.3-20.1-1.9-38.9-6.4-57.9-12.8l4,10.9c-2,7.2-8.4,9.8-15.3,8.5l-35.5-8.1c-4.9,19.1-4.3,38.9,2.2,57.5,36.8-15,68.3-27.8,107.7-31.1,10.5-.6,20-.5,30.3.6,1.5.2,3.3,3.2,3.1,4.5s-2.6,3.1-4.6,3c-17.4-1.4-33.8-.2-50.8,3.1-42,8.1-61.6,20.7-100.1,33.4-7,2.3-13.8,1.6-19.5-3.2l-8.8-7.4c-6.7-5.6-16.9-5.9-23.4-.2-5.1,4.5-7.2,11.3-7.1,17.6,3.8-.7,6.2,1.3,8,4.2-.7-3.6-1.4-7.5-.4-10.8ZM785.4,640c-1.9-2.2-8.4-.8-8.1-4.9.8-11.7-11.9-6.6-10.7-14.3,1.1-6.9-2.1-12.2-8.3-15-6.7-3.1-3.5-6.9-6.2-13.1l-2.3,10.5c8.5,5.3,11.7,14.2,8.9,23.4,8.8,5.6,12.3,15.2,10.8,24.9,3.8,2.3,5.8,5.4,7.1,9.6,1,.2,4.6-.1,5.2-.7.1-2.1,0-5.7,1-6.6,3.7-3.1,6.3-9.3,2.4-13.8ZM149.2,622.5l-5.3-11.6c-3.2,1.7-15,6.9-14.9,1.1,0-1,1.1-3.1,2.2-3.6l9-3.7c-5.3-6.3-14.6-13.7-21-9.9-9.2,5.4-5.8,33.7,12.2,47.3,4.8,3.6,12.1,5.5,16.9,2.1,4.3-3.1,3.3-9.8,2.5-13.8-3.1,1.3-6.6,2.7-9.1,3.4s-3.7-1.9-3.6-3c.2-4.6,6.6-4.5,11.2-8.3ZM828.8,664c3.3-4.2,5.3-6.5,8.7-9.9-12.6-5.4-28.5-7.2-42.8-8.3-.8,5.3-2.6,7.8-5.9,13.1,16.3-.7,24.1-3.8,39.9,5ZM852.2,677.7l2.7-8.6-10.6-11.7c-4.3,3-7.2,5.8-10,9.6l5.6,5.2c3.6,3.3,6.4,5.9,12.3,5.6ZM783.2,683.9c6.7-2.2,13.6-2.9,20.3-3.6.9-5.4,2.4-9.9,5.3-15-18.7-.5-37.7,4.5-56.3,8.1,3.2,5.2,3,10.8-1.7,14.8l1.4,6.1,31-10.4ZM823.1,683c4.7,1.1,9.5-1.6,13.1-4.1-5.2-6.8-11.9-10.5-20.1-12.6-3.4,3.9-5.1,8-5.7,13.8l12.8,2.9ZM899.4,688.9l43.2-12c.9-.2,2.2-2.1,1.7-2.1s-2-.1-2.5,0l-83.4,23.8c14.7-1,26.9-5.7,41-9.7ZM262.4,692.3l-4.3-9.5c-.9-2-3.6-3.2-5.6-2.6l8.4,16.3c1.5-.2,2.2-2.7,1.5-4.3ZM849,690.8l.9-7.1-6.6-1.1c-4.4,3.1-8.2,4.8-13,7l18.7,1.2ZM820.6,689.2c-7.6-2.5-15.4-2.9-24.2-2,2.2,1.1,4.5,1.3,7.2,1.4l17,.5ZM953.3,755.3c3.2-5.9,1.8-12.6-4-16.3-1.5-1-2.3-3.9-1.7-5.7,2.9-8.5-2-16.7-10.5-18.8-8.4-2.1.2-13.4-12.2-20.1s-13.8-2.6-27.9,1.9c1.6,2,3.5,3.3,5.8,3.9,8.1,2,13.3,8.3,13.6,16.6,11.7,4.4,17.8,15.7,16.4,27.9,7.6,6.2,10.4,15.6,6.6,24.5,2.4,3.9,3.4,8,3.1,12.6,5.4,0,9.8-3.6,12.2-8.3,5.4-10.3-6.1-10-1.6-18.2ZM855.4,699.7c0-3.4-2.3-4.6-4.5-4.7l-69.5-3.3-11.9,3.8,34.2,1.6,51.7,2.6ZM557.2,710.6c.4-1-1.6-3.3-2.4-3.7-.3,3.5-.4,6,0,9.9l2.4-6.2ZM93.5,787c15.8,39.3,26,59.6,72,58.3-3.2-3.9-6.1-7.4-8.6-11.8-10.6-19.1-22.3-48.7-16.3-70.4,3.1-11.1,12.5-19.7,24.1-20,18.4-.6,23.6,16.4,34.9,16.4l13.7-4.3c-4.1-11.6-5.5-22.6-6.1-35-30.4,7.7-47.2,16.5-72.8,32.2-12.4,6.5-14.2-3.6-26.3-6.9-7.8-2.1-15,1.9-17.9,9.3s-1.8,10.5-.5,14.9c3.6-.6,5.8.5,8.9,2.4-3.6-5.6-6-16.2-.4-18,6.1-1.9,12.6,9.2,10,17.1-.5,1.4-3.5,3.3-4.9,2.8l-4.9-2.1c2.7,4.6,4.7,13.6.5,14.2l-5.5.8ZM560.2,809.8c-3.6-5.1-3.4-9.4-1.5-14.1,1.4-3.5,5-6.4,9.3-8.3-5.8-9.5-6.1-20.1-2.5-30.1-8.5-5.3-12.1-13.9-13.2-23.1-2.9,18.6-7.3,35.7-14.8,52.3,12.9,5.2,19.6,16,18.9,29.7l3.9-6.4ZM104,769.5c.9-4.7-.8-8.8-4.2-10.9-.7,4.2.4,8.7,4.2,10.9ZM162.6,777.5c1-3.8-.2-7.2-2.9-9.7-1.1,3.4-.6,7,2.9,9.7ZM96.4,781.9c.9-2.9-.9-6.1-3.9-7.7-.2,2.9,1.1,5.8,3.9,7.7ZM152,784.3c.1-3.4-.6-5-2-6.7-.9,2.8-.3,5.7,2,6.7ZM962.5,823.2c3.8-.9,6.4-2,9.1-3.9-6.4-11.5-11.7-22.8-16.3-34.5-3.6,2-7,3.2-11.6,4.3,5.5,11.9,11.5,22.8,18.8,34.1ZM752.8,847.2h184.3s-27.6-36.4-27.6-36.4c-5.7,1-10.1-1-14-4.9-8.8,2.6-17.5-2.1-19.6-11.6-7.7,1.4-13.8-2.1-18.3-8.4-7.4,12.7-12.5,16.2-26,17.4-7.2,14.7-19.4,25.4-37,22.4-7.8,12.8-21.8,19.2-36.2,15.3l-5.6,6.1ZM598.1,840.4c5.3,5,13.3,4.1,18.3-.8-1.9-2.2-4.2-3.7-6.8-4.2-16.8-3.2-28.3-16.3-30.3-33.3s-.8-6-4.6-7.9-5-.3-7.8,2.1c-1.5,1.3-2.7,4.4-2.3,6.5.8,4.3,6,5.2,5.7,9.1s-1.9,2.9-3,3.3c-4.8,1.7-5.9,7.7-3.3,11.1s6.9.7,8.9,3.3-3.2,11.2,5,12.7c12.6,2.3,13.7-7.8,20.2-1.7ZM532.4,837.4c7.3-4.7,12.2-10.6,14.5-18.4,3.2-10.8-2.6-21.8-13.3-24.7-8.2,16.9-19.9,30.2-34.4,41.7,10.6,6.3,22.7,6.6,33.1,1.4ZM916,807.4l19.3,25.2c6.4-2.7,12.1-6.1,17.7-10.3l-14.7-28c-3.7,2.3-14.2,7-19,8.5s-3.2,3.2-3.3,4.6ZM570.4,847.2c-3.4-4.4-4.8-7.1-5.2-11.7-6.3-2.2-9.7-7-10.2-14.5-3.5,12.2-11.8,20.5-23.2,26.2h38.6ZM975.5,843.1c2,1.2,7.6,0,8.1-2.6-2.5-5.8-5.4-10.7-8.5-15.8l-8,4.6,8.3,13.8ZM968.3,845.1c-3.6-6.8-7.2-12.2-11-17.4l-17.6,10.5c7,11,17.5,9.9,28.6,6.9ZM501.8,847.2l-10.4-6.2-10.5,6.2h20.9ZM625,847c-1.1-1.2-2.8-2.8-3.6-2.3l-3.5,2.4h7.1Z"/>
    <path class="st1" d="M186.8,408.6c-.4,6.7-19.1-3.1-22.8-4.9-1.1-.6-2.1-3.5-1.9-4.7,1-5.8,19.6,4.1,23.1,5.8,1,.5,1.7,2.9,1.6,3.8Z"/>
    <path class="st1" d="M196.1,392.8c.9,1.2,0,4.8-1.1,5.5s-3.8.6-5-.8c-3.7-4.4-14.9-16.4-10.7-19.9.9-.8,4-.7,4.8.3l12,14.8Z"/>
    <path class="st1" d="M182.5,427.8c-5.5,1-19.2,4.3-20-1.4-.2-1.3,1.8-3.7,3.2-4,5.2-.8,18.4-3.7,19.3,1.5.2,1.1-1.4,3.6-2.5,3.8Z"/>
    <path class="st0" d="M786.3,702.4l-7.6,7.5c-10.8-1.8-21.5,2.5-28.2,12.3-10.2-3.1-20.5,4.2-22.9,13.7-.2.9.6,3.1,1.3,3.1,5,.3,4.2-15.7,24.3-10.1,13.7-20.6,27-9.4,29.5-13.3,3.9-5.9,8.7-9.6,16-10.2,2.6-.2,6.7-2.2,9.3-2.1l50.2,2.1c10.1.4,19.1-5.1,29-6.6,5.4-.8,4.5,7.2,12.8,8.2,13.4,1.6,6.4,14.7,12.1,16,8.7,1.9,15,10.5,13.7,19.9-.5,3.5.7,6.2,3.3,8.4,4.9,4.1,6.6,10.4,3,16.1s6.9,5.2,2,17.7c-1.1,2.8-2,6.3-5.8,6.1s-4.1,0-5.3.6c-2.7,7.9-7.9-.2-10.5,6.9s-3.1,4.8-5.4,4.9-5.3-1.2-6.5-3.8c-3.2-6.8-8,2.3-13.6-1.2s-3.3-9.1-5.7-12.2c-2-2.6-8.3,4-14.7-1.3s-4.5-13.5-8.8-14.2c-5.8-1-2.8,6.8-10.6,17.9-3.7,5.3-9.6,7.4-15.9,7.1-9-.4-4.9,8.8-17,18.2-6.4,4.9-12.8,5.8-20.9,3.9-1.8-.4-4.4,3.3-5.4,4.8-6.6,10.1-17.6,14.9-29.1,10.9-1.8-.6-4.4.6-5.5,2.2-5.8,8.3-16.5,10.8-24.9,5.1-3.2-2.2-6.6-1.9-9.8.4-17.1,12.2-28.1-3.1-35-.2-11.1,4.7-19.7,9.2-31.1.3-10.9,5.2-22.5,2.7-30.5-6.3-3.4-3.9-7.1-6.4-12.3-7.3-7.2-1.1-13.6-5.2-17.7-11.1-9.7-13.8-3.4-22.5-9.8-26-10.8-6-14.5-18-10.4-29.8.8-2.2,1.4-6.4-.9-7.9-14.6-9.2-14.2-24.7-7.5-38.8,4.1-8.5-5.4-9.9-7.7-19.7-1.9-8.2.2-16.8,4.8-23.6,1.9-2.8,2.2-5.4-.2-8.1-4.4-5.1-4.9-11.7-.5-17.2,1.4-1.7,1.2-4.5.3-6.6-4.5-10.3-1.5-21.7,6-29.8s2.1-4.7.9-6.5c-5.7-8.3-3.8-19,4.3-25.1,1.7-1.3,3.3-3.9,2.6-6-5.1-16.3,10.4-17.4,7.8-24.1-3.2-8.2-.3-16.8,7.1-21.5s3.6-3.8,2.1-6.6c-4.5-8.7-1.2-18.6,8.2-22.3,7-2.8-3.5-11.8,7.5-16.1,2.4-.9,3.8-3.5,2.8-6.1-3.8-9.6-1-19.6,6.9-26.2s2.4-4.4,1.5-6.3c-3.4-7.7-.2-15.3,7.3-19.1,2-1,4.7-3.4,3.9-5.7-2.7-8.1,1.2-15.2,9.3-17.7.8-.2,2.4-1.3,2.9-1.9s.4-3.3,0-4.3c-4.9-9.6.4-20.2,10.4-23.6,3-1,1-5.9.7-8.1-1.5-12.8,7.8-24.5,20.1-27.2,7.8-1.8-1-9.4,4.9-16.2,5.7-6.5,13.1-2.1,15-4.8s-2.2-14.7,9.9-16.7l3.7,12.8c-12.7,10.4-20,26.2-17.8,42.6,1.4,10.3,6.3,19.4,14.8,25.3,10.5,7.3,24.4,7.3,35.1-.2,20.5-14.2,28.8-44.7,11.3-65.5,4.5-9,9.5-17.7,15.8-25.5,8.4.6,7.4,8.7,10,11.7s8.4-3.8,18.4-4c6.1-.1,10.5,4.1,9.8,10.1-1.1,9.8,16.2-1.3,26.5,12.7,1,1.4,2.1,4.5,1.8,6-.7,4.6-7.5,4.2-7.1,8.5.5,4.3,7.1,4.1,8.2,12,.6,3.8-2.1,6.6-5.5,6.8-11.3.7-12-10.4-17.1-10.3s-1.8,10.4-11.4,8.9c-11.1-1.8-11.2-11.3-16.4-11.2-4.8,0-3.6,7.5-8.3,8.5-6.6,1.5-7.2-4.5-12.2-3.6-6.3,1.1,4.3,22-14.7,29.5-.9.4-2.2,2.3-2.1,3.2.6,4.2,9.2,7,3.2,14.4-4.5,5.5,6.3,7,7.9,13.3,2.3,9.3-5.3,10.2-1.4,16,4.9,7.2,11.7,11.8,20.1,13.7-2.2,12.2-17.3,5.4-14.2,14.6,1.8,5.4-.8,11.5-6.9,13.3-8.9,2.5,7.5,16.6-8.8,34-.9,1.1-.6,4.6-.3,6.2,1.5,7.6-1.4,15.1-8.1,19.9-3.7,2.7,8.3,14.3-.2,23.6-1,1.1-2.4,3-2.6,4.2s1,3.5,1.7,4.4c7.4,9.3-7.4,11.8,0,18.9,7.6,7.3,11.2,18.2,7.1,28.1-.6,1.4-1.1,4-.7,5.2,1.1,3.4,14.4,6.6,9.7,20-1,2.8.3,5.5,2.6,6.9,6.8,4,9.5,11.2,7.8,19-1.3,6,6,4.8,7.8,11.6l-19.8,4.1c.6-6.8-6.1-7.6-9.2-10.9s-6.7-8.8-13.8-8.4c.5-8.2-4.6-13.6-11.6-16.3,1.5-8.2-3-15.1-10.9-17.8,2.6-19.3-23.1-27-25.5-22.8-1.7,3,8.5,1.7,16.3,8.8,8.5,7.7,2,15.7,3.6,17.7,1.9,2.4,7.5,2.7,9.4,6.8,2.3,5.1-2.2,8-1.3,11,1,3.4,6.8,1.3,10.7,5.6,4.5,4.9.7,10.2,2.5,13,2.2,3.3,12.2-1.6,12.9,5.8,0,1,.6,3.3,1.2,3.9,2.3,1.9,5.5-.1,8,2.4s-4.2,7.1,2.4,10.7c1.1.6,2.5,2.9,2.4,3.9-.4,3.6-5.1,3.6-5.5,6.5-.5,3.9,2.7,4,2.5,7.6s-1.8,2.1-2.6,2.4c-7.4,2.3-2.3,7.6-8.6,10.9-4.3,2.2-6.5-2.2-9.6-1.7-2.5.5-3.2,5.4-7.5,6.2-5.6,1.1-8.1-5.5-10.6-4.4s-2.4,1.4-3.6,2.2c-5.9,3.7-13.4-.7-15.1-7.4-2-8.2-8.3,1.6-18.2-3.4-5.7-2.9-9.3-8.5-10-14.9-.7-7.4-8.4-1.7-13.6-6.8-4.8-4.7.3-12.9-7.7-13.3-10.2-.5-10.6-11.2-10.8-19,0-1.1-1.7-2.7-2.7-2.8-5.5-.3-3.8,13.2-1.6,18s7.1,9.5,13.2,10.8c.5,9.3,7.4,15.6,16.2,16.1,3.6,13.6,14.1,23.6,29.2,20,4.6,9.7,15,14.1,24.6,8.8,6.6,4.6,14.3,3.6,19.8-1.8,8.6,2.4,16.8-1.7,19-10.4l17-5.6c1.4.8,3.7,2,4.8,2.7l20.1,1.4ZM671.1,384.6c.8-.4,1.4-1.7,1.4-2.4s-2.1-1-2.7-.8c-13.7,5.5-16.3,23.6-10.9,24.6,3,.6-2.9-14.5,12.3-21.5ZM720.4,418.3c-5.4-.3-8.5-4.9-7.1-10.1l2.3-8.4c-6.9,1.6-6.3,8.2-6.5,12.8-.2,5.5,5.9,6.8,8,10.5,2.3,4,1.4,9.9,5.5,13.1,9.5,7.3,16.8,3.7,15.3,1.5-2-2.7-7.7.4-12.6-4.7-5.9-6.2-.7-14.6-4.9-14.8ZM638.9,472.2c2-8.3,10.2-11,8.1-13.1s-5.5-4-4.2-8.7,8.6-6.8,10.7-10.2-10.7-1.2-14.4,8.6-.3,8,2.7,11.2c-4,3.8-6.8,8.4-7.3,13.7-1.1,11.9,11,17.6,11.5,13.8.4-3-9.6-4.5-7-15.3ZM662.7,498.5c-4.2-5.4.5-10.1-3.3-11.5-4.2,3.7-2.8,9.7-.3,13.5,2.7,4,8.2,5.5,12.9,3.9s1.9-2.5,1.5-3.2c-1.6-2.7-7.5,1.7-10.8-2.6ZM699.3,548.9c0-.6-.2-1.9-.3-2.4s-2.3.2-2.5.7c-1.6,6.7,2,17.5,10.2,19.7,1,.3,3.4-.4,3.2-1.2-1.3-4.2-9.5-.4-10.6-16.8ZM595.5,599c-3-8.3,2.3-14.5,8.5-19-3.8-4.5-6.6-9.9-2.3-15.4,5.9-7.7,10.2-5.9,12.1-9.8,1.4-3-13.7.7-17.4,11.7-1.6,4.8-1,9.1,2.1,13.4-12.3,9.7-6.2,23.5-4.1,20.7l1.2-1.6ZM602.5,733.4c-1.4-1.9-10.2,1.3-10.4-7.3-.2-8.4,9-14.2,4.9-14.5-4.6-.4-9.5,10.1-8.5,16.4s4.1,8.1,9.2,8.6c-.9,4-1.4,7.5.4,11.1,1.9,4,8.8,7.2,10.4,4.1s-6.2-2.4-7.5-6.9c-1.5-5.4,2.8-9.7,1.5-11.5ZM643.7,735.5c0-.5-.4-1.8-.5-2.3s-2,0-2.2.5c-1.8,4.3.8,13.2,7.6,14.2.8.1,2.9-.5,3-1.3.3-2.9-7.4-1.5-7.9-11.2ZM608.3,771.5c0-.9-1.2-2.3-1.7-2.7s-1.9,1-2,1.8c-1.2,17.7,19.5,25.5,19.3,19.8s-13.8-.8-15.7-18.9ZM793.7,797.5c2.8-2.5,6.1-8.1,4.8-12.2s-2.5-.7-2.7,0c-1.9,4.9-5,14.5-15.3,11.9s-2.9.6-3.2,1.3c-1,2.6,8.6,6,16.4-.9ZM699.8,815.3c-.5,0-1.9.2-2.6.6-8.6,5.3-18.1,1.4-23.8-6.7s-1.9-1.1-2.5-.9c-3.4,1.4,3.2,9.1,10.5,12.6,13,6.2,23.9-6.3,18.4-5.6Z"/>
    <path class="st0" d="M334.3,589.7c-19.8-13.7-42.2-21.3-65.5-15.3,5.4-10.5,10.3-20.1,14.6-30.7,5.3.5,33.7,6.2,33.8-1.4,0-1.2-2.2-3.2-3.8-3.3-18.4-.8-35.8-3.6-52.6-10.9-14.1-6.1-35.4-21.4-38-38.1,4.8,3,8.6,7.4,14.5,6.4s19.7-9.6,17.6-17.1c-1.9-6.9-24.6-5-31.3-5.5l14-14.8c4.4-4.7,6.5-10.3,9.5-15.8,2.1-3.8,11.3-1,12.4,2.9,2.4,9,5.3,16.8,11.5,23.6s20.5,11.6,31.6,6.6c11.1,2.8,22.7-1,28.3-10.8,5.8-10.3,4.4-22.1-2-32.6l45.4-18.1c7.1-2.8,16.1-3.7,20.2,4.2,1,1.9,3.3,3.1,5.1,2.4s2.8-3.7,2.1-5.5c-4.9-12.3-20-12.7-30.8-8.3l-46.3,18.9c-10.3-15.2-30.2-26.8-47.8-18.9-10.6,5.6-16.4,16.5-17.1,28.6-4.4-2-8.7-2.6-13.5-1.8.1-6.8.2-13.9-3.2-19.5-2.9-4.8-6.9-7.1-13.1-6.4,9.2-60.1,60.2-100.7,120.9-94.2-1.6,5.4-4.9,25.6,2.6,25.4,7.2-.2.5-11.6,6.8-26.1,4.6-10.6,14.4-16.6,25.9-15.9,19.5,1.1,33.1,18.1,31.5,37.4-2.1,25.6-21.9,24.2-21.7,32,0,1.3,2.9,2.7,4.5,2.4,11.2-2.4,18.4-10.4,22.9-21,27.1,29.7,42,62.2,57.4,99.6-8.1,13.1-17.7,23.9-29.2,34.2-31.7,28.5-70.8,47.6-112.5,56.4-1.8.4-3.1,2.5-3,3.8s2.6,2.9,4.3,2.7c53.8-8,112.7-42.7,144.1-88l11.7,28.6c12.8,31.2,23.4,62.8,32.5,95.2-18.4,26.1-51.5,46.8-82.4,55.2,2.2-4.7,22-30.9,13.6-33.3-2.1-.6-4.5.7-5.6,3.1-12.6,25.9-30.9,47.9-54.9,64-25.8,17.3-56.1,22.7-86.6,17.8-22.2-3.6-42.8-9.7-63.8-17.6-13-4.9-34.6-14.4-40.9-27.8l10.9,2.6c1.1.2,3.3-1.6,3.5-2.5,1.8-6.6-24.9-6-17.5-22.6,4.4,2.4,16,9.7,18.9,4.9,3.6-6-10.6-6-15.2-12.5,11-14.5,33.7-11.2,49.1-8.2,35.3,6.9,66,7.9,94.6-17.6,10.7-9.6,20.1-19.7,29.1-31.1.8-1,.2-4.2-.8-4.9s-4-.8-4.8.1l-14.8,15.7c-8.2,8.7-16.4,16.5-26.8,23.6ZM398.5,326.2c-4.1-9.5-15.1-12.6-24-7.3-7.7,4.6-11.3,14.3-9.1,22.8,7.2,3.7,13.4,7.5,18.3,13.6,1,1.2,2.7,2.7,3.9,2.9,5,1,18.5-14.7,10.9-31.9ZM420.2,442.6c-.6.7-.7,2.7-.3,3.5,5.2,9.5,5.8,19.5,8.7,18.2,6.2-2.7-3.5-26.9-8.4-21.7ZM418.8,459.1c-.9,0-2.3,2-2.2,3.1.8,6.4,1,12.9,1,19.6,0,1.1,1.2,3.1,2.2,3.3,5.8,1.1,6-25.9-.9-25.9ZM412.5,480.6c-1.1.2-1.9,2-2.5,3.6-3.5,10.3-11.9,20.7-9.1,22.7,5.3,3.6,21.3-28.2,11.5-26.3ZM254.7,513.6c14.7,5.7,30.6-6.9,27.4-11.8-.3-.5-2.7,0-3.1.7-4.3,7.1-15,10.3-23,7.5-.8-.3-3.1.6-3,1.3s1,2.1,1.7,2.4Z"/>
    <path class="st0" d="M155.3,766.7c-1,3.3-.2,7.2.4,10.8-1.9-2.8-4.2-4.9-8-4.2-.1-6.4,2-13.1,7.1-17.6,6.6-5.7,16.7-5.4,23.4.2l8.8,7.4c5.7,4.7,12.6,5.5,19.5,3.2,38.5-12.8,58.1-25.3,100.1-33.4,17-3.3,33.4-4.5,50.8-3.1,1.9.2,4.3-1.5,4.6-3s-1.6-4.4-3.1-4.5c-10.4-1.2-19.9-1.2-30.3-.6-39.4,3.3-70.9,16.1-107.7,31.1-6.6-18.6-7.1-38.5-2.2-57.5l35.5,8.1c6.9,1.3,13.3-1.3,15.3-8.5l-4-10.9c19,6.4,37.8,10.8,57.9,12.8,46.4,4.5,86-16.3,115.4-51.3,34.6-6.3,69.5-26.9,92.4-54.7,9.2,33.8,14.5,67.1,15.2,101.6.9,47.7-11,103.7-49.7,135-28.8,23.2-50.8,19.5-86.7,19.3,9-6.3,15.8-12.5,20.3-22.1,11.1-23.8,8.5-52.3-8.4-72.7-10.5-12.7-25.1-20.3-40.7-25-.9-.3-3.1.5-3.3,1.3s1.1,2.7,2,2.9c13.7,4.2,26.5,10.2,36.3,21.1,15.4,17.1,20.6,40.9,12.7,63.3-4.6,12.9-17.1,30.5-32.8,30.6l-200.4,1c-7.5,0-14.7-1.5-20.7-5.1-12.3-7.4-22.8-38.3-26.1-52.6,2.9.8,6.4,1.4,7.5-1.5s.4-6.9-.3-10.3c1.6,2,3.8,4.4,5.9,4.7s5.3-1.9,5.8-4.7c.8-4.9-1.1-9.8-4.8-12.8-2.2-1.8-6.2-1.5-7.4,2.2ZM178.4,771.9c-.8-.9-3.5-1.6-4.6-1.3s-3,2-3.4,3.1c-1.9,5.2-.4,10.7,3.5,14.2,1,.9,4,1.4,5.1,1,4.5-1.8,4.9-11.2-.7-17ZM173.8,795.5c-2.9-2.7-7.2-3.6-10.5-2.1-13.4,6.1,3.7,48.8,18.1,42.5,9-4,5.3-28.4-7.6-40.4Z"/>
    <path class="st0" d="M945.4,668.5l-84.7,23.5,29.9-83,14.4-40.7,84.1-19.3-37.9,113.1c-1.2,2.8-2.9,5.6-5.8,6.4ZM943.2,609c-.5-2-2.4-4-3.8-4.7-1.6-.8-5.3-.8-6.6.4-10.6,9.7-10.8,25.9-2.8,28.1s16.5-11.6,13.2-23.7Z"/>
    <path class="st0" d="M256.4,697.5l-82.2-19.7c-3.3-.8-6.2-2.8-7.8-5.7l-12.2-21.5c16.2-18.2-8-64.5-33-65.2l-28.1-51.3c-.4-.8-.4-3.3,0-3.6l87.3,20c4,.7,6.7,2.6,8.5,6l22.3,43.2c-9.5,5.8-14.4,14.8-14.6,25.5-.3,15.1,7.2,28.3,19.5,36.9,9.4,6.6,19.4,11.2,30.5,15.2,3.8,6.3,6.9,12.4,10.1,20.2ZM112.5,549.7c2-1.8,1.2-5.9-.2-7.9s-4.7-3.8-7.1-2.5c-3.6,1.9-2.8,6.3-.9,8.8,1.6,2,5.2,4.3,8.2,1.6ZM170.1,599.9c0-5.7-.8-.7-7.9-9-.5-.6-1.8-1.4-2.4-1.1-3.5,1.8,2.9,8.5,4.7,10.1-1.6.9-4.1,3.1-4.4,5.2-1.1,8.6,3.1,16.4,11.1,19.8,1.9.8,5.7.5,7.1-.7,6.7-5.4.7-20.3-8.3-24.3Z"/>
    <path class="st0" d="M848.1,429.2c-15.1.6-19.1-16.4-22.3-14.8-5.3,2.7,8.6,19.6,18.2,20.3-12.8,6.2-19.5-5.8-40.8-7.3l-23.5-1.6c-7.3-.5-13.5-4.6-18-10.1,4.6-8.4,2.9-18.6-5.5-24.1,2.3-4.8,2.4-9.7-.6-14.6,7.7-5.4,11.5-13.1,12.1-22.8,6,1.3,11.8-.2,16-5.2,8.5,8.5,18.8,11.3,28,3.2l9.8,6.1c4.1,6.9,8.9,13.3,15,18.9l19.3,17.3c4.2,3.7,5.9,10.3,3.4,15.3-3.6-2.7-10.8-12.7-15.4-10.1-4.9,2.9,7.4,12.7,10.4,14.9,0,4.4-2.8,10.7-6.1,14.8ZM792.6,381.4c3.8-2.4,5.9-6.9,5.3-11.4-.2-1.6-1.9-3.9-3.2-4.4s-4.6,0-5.7,1c-3.7,3.1-5.1,7.5-4,12s4.5,4.7,7.6,2.8Z"/>
    <path class="st0" d="M752.8,847.2l5.6-6.1c14.4,3.8,28.4-2.5,36.2-15.3,17.6,3,29.7-7.7,37-22.4,13.5-1.2,18.7-4.7,26-17.4,4.4,6.3,10.6,9.8,18.3,8.4,2.1,9.5,10.8,14.2,19.6,11.6,3.9,3.9,8.3,5.9,14,4.9l27.6,36.4h-184.3Z"/>
    <path class="st0" d="M93.5,787l5.5-.8c4.2-.6,2.3-9.6-.5-14.2l4.9,2.1c1.3.6,4.4-1.4,4.9-2.8,2.6-8-3.9-19.1-10-17.1-5.6,1.8-3.2,12.3.4,18-3.2-1.8-5.3-3-8.9-2.4-1.3-4.4-1.4-10.1.5-14.9,2.9-7.4,10.1-11.4,17.9-9.3,12.1,3.3,13.9,13.4,26.3,6.9,25.6-15.7,42.4-24.4,72.8-32.2.5,12.3,1.9,23.3,6.1,35l-13.7,4.3c-11.3,0-16.5-17-34.9-16.4-11.6.4-21,8.9-24.1,20-6,21.6,5.6,51.2,16.3,70.4,2.4,4.4,5.4,7.8,8.6,11.8-46,1.3-56.2-18.9-72-58.3ZM116.2,778.9c1.5,1.1,4.8,1.2,5.9.4,5.4-4,2.9-13.7-2.8-18.4-.9-.8-3.4-1.3-4.5-.9-5.3,1.9-5.3,14,1.4,18.9ZM131.6,830.5c14.3-8.6-8.4-52.4-22.4-44.7-14.4,7.9,8.6,53,22.4,44.7Z"/>
    <path class="st0" d="M953.3,755.3c-4.5,8.2,7,7.9,1.6,18.2-2.4,4.7-6.9,8.3-12.2,8.3.2-4.6-.7-8.7-3.1-12.6,3.8-8.9,1-18.3-6.6-24.5,1.4-12.2-4.7-23.5-16.4-27.9-.3-8.3-5.6-14.6-13.6-16.6-2.3-.6-4.2-1.9-5.8-3.9,14.1-4.5,16.3-8.2,27.9-1.9s3.8,18,12.2,20.1c8.5,2.1,13.4,10.3,10.5,18.8-.6,1.8.2,4.7,1.7,5.7,5.8,3.7,7.2,10.3,4,16.3Z"/>
    <path class="st0" d="M297.2,470.2c-15.5-6.9-28.8-29.6-24.5-46.1,2.1-8.2,9.1-13.2,17.5-11.1,14.7,3.6,22.2,24.1,20.4,38.1-1,8.3-5.5,15.8-13.5,19.2ZM292,438.8c-1.6-2-6.1-3.1-7.7-.8-3.5,5.4-1.6,12.6,3.2,16.8s4.2,1.2,5.3.7c4.5-2.1,3.9-10.8-.8-16.7Z"/>
    <path class="st0" d="M532.4,837.4c-10.4,5.2-22.6,5-33.1-1.4,14.5-11.5,26.2-24.8,34.4-41.7,10.7,2.9,16.5,13.9,13.3,24.7-2.3,7.8-7.2,13.7-14.5,18.4Z"/>
    <path class="st0" d="M149.2,622.5c-4.6,3.8-11,3.7-11.2,8.3s2.4,3.3,3.6,3c2.5-.7,6.1-2.1,9.1-3.4.8,4,1.8,10.7-2.5,13.8-4.8,3.4-12.1,1.5-16.9-2.1-18-13.5-21.4-41.8-12.2-47.3,6.4-3.8,15.6,3.7,21,9.9l-9,3.7c-1.1.5-2.2,2.6-2.2,3.6,0,5.7,11.7.6,14.9-1.1l5.3,11.6Z"/>
    <path class="st0" d="M598.1,840.4c-6.5-6.1-7.6,4-20.2,1.7-8.2-1.5-3.2-10.2-5-12.7s-7-.8-8.9-3.3-1.4-9.4,3.3-11.1,3-2.2,3-3.3c.3-3.8-4.9-4.7-5.7-9.1s.8-5.1,2.3-6.5c2.7-2.4,5.5-3.1,7.8-2.1,3.8,1.9,4.2,4.1,4.6,7.9,1.9,17,13.5,30.1,30.3,33.3,2.6.5,4.9,2.1,6.8,4.2-5,5-13,5.8-18.3.8Z"/>
    <path class="st0" d="M560.2,809.8l-3.9,6.4c.8-13.7-5.9-24.5-18.9-29.7,7.5-16.6,12-33.7,14.8-52.3,1.1,9.1,4.7,17.7,13.2,23.1-3.6,10.1-3.3,20.7,2.5,30.1-4.2,1.8-7.9,4.8-9.3,8.3-1.8,4.7-2.1,9,1.5,14.1Z"/>
    <path class="st0" d="M326.1,593.6c-22.1,9.5-46,6.4-68.7,1.9l5.6-10.3c21.6-10.2,43.9-3.6,63.1,8.5Z"/>
    <path class="st0" d="M720.7,301.2c-10.8-36.3,13.7-58.8,7.5-59.1-5.7-.2-11.3,17.2-12.9,22.6-3.4,12.1-2.3,26.4.4,38.5.1.6-.8,2.6-1.2,2.3-4.2-2.5-14.4-47.4,13-71.1,8.7-7.5,4.6,27.4,4.4,30.5l-1.6,22.2c0-1.4-6.9,23.5-9.7,14.2Z"/>
    <path class="st0" d="M783.2,683.9l-31,10.4-1.4-6.1c4.7-4,4.9-9.5,1.7-14.8,18.6-3.6,37.6-8.6,56.3-8.1-2.9,5.1-4.4,9.7-5.3,15-6.7.7-13.6,1.4-20.3,3.6Z"/>
    <path class="st0" d="M224.4,594.2l-7.8-14.4c24.3-5.3,34.6-12.3,54.2-27.8l-21.8,42c-8.2-.6-14.9-1.4-24.6.2Z"/>
    <path class="st0" d="M743.3,328.5c-.5-1.8,1.5-5.9,2.4-7.8,10.4,15.7,4.3,38.1-10.8,49.3s-12.7,6.1-20.1,4.4-11.9-5.9-15.2-12.5c-9.2-18.4,1.2-44.9,21.3-49.8.1.8.1,3.4,0,4.3-15.8,2.8-23.4,20.8-19.8,34.9,2,7.7,7.7,13.4,14.5,15.1,8.2,2,15.7-.7,21-7,7.4-8.7,9.7-19.3,6.7-30.8Z"/>
    <path class="st0" d="M725.7,357.6c-6.4,3.8-13.7-.4-16.3-6.6s-.5-18.9,6.9-24.7c3.3-2.5,8.2-2.9,12.2-1.4s6.3,4.7,7.3,8.8c2.1,8.8-1.9,19-10.2,24Z"/>
    <path class="st0" d="M916,807.4c.1-1.4,1.9-4.2,3.3-4.6,4.8-1.4,15.3-6.2,19-8.5l14.7,28c-5.6,4.2-11.3,7.6-17.7,10.3l-19.3-25.2Z"/>
    <path class="st0" d="M249.1,345.2c-7.4-10.2-6.2-24.4,3.1-32.3,4.8-4.1,10.7-6.1,17.2-4.6,4.8,1.1,9.9,5.1,12.7,10.2-12.6,7-22.9,15.5-33.1,26.7Z"/>
    <path class="st0" d="M746,300.5l-10.3-4.4c5.1-11,11.4-21.2,20.6-29.1,12.5-10.7,30.3-11.9,42.9-1.2-24.7-10.7-41.8,15.8-53.2,34.6Z"/>
    <path class="st0" d="M785.4,640c3.9,4.6,1.3,10.7-2.4,13.8-1.1.9-.9,4.5-1,6.6-.6.5-4.2.9-5.2.7-1.3-4.2-3.2-7.3-7.1-9.6,1.4-9.7-2-19.3-10.8-24.9,2.8-9.2-.4-18.1-8.9-23.4l2.3-10.5c2.7,6.2-.5,10,6.2,13.1,6.2,2.8,9.4,8.1,8.3,15-1.2,7.7,11.5,2.6,10.7,14.3-.3,4.2,6.2,2.7,8.1,4.9Z"/>
    <path class="st0" d="M217.5,595.3c-.3,1-2.2,1.9-3.4,1.7l-21-40.5c-2.9-5.5-7.1-8.8-13.3-10.2l-85.8-19.7c1.3-1.8,4.1-2.5,6.4-2l84,19c4.3,1,8.1,2.7,10.2,6.9l22.9,44.8Z"/>
    <path class="st0" d="M307,506.3c23.6-16.8,32.6-40.4,25-65.8l21.8-6.5c15.9,16.2,19.7,36.6,7.3,54.6-11.5,12.2-29.8,20.5-54.1,17.7Z"/>
    <path class="st0" d="M828.8,664c-15.8-8.9-23.6-5.8-39.9-5,3.3-5.3,5-7.8,5.9-13.1,14.3,1,30.1,2.8,42.8,8.3-3.4,3.4-5.5,5.7-8.7,9.9Z"/>
    <path class="st0" d="M962.5,823.2c-7.3-11.3-13.3-22.1-18.8-34.1,4.6-1.2,8-2.3,11.6-4.3,4.6,11.7,9.9,23,16.3,34.5-2.8,1.9-5.3,3-9.1,3.9Z"/>
    <path class="st0" d="M570.4,847.2h-38.6c11.4-5.7,19.7-13.9,23.2-26.2.4,7.5,3.8,12.3,10.2,14.5.3,4.6,1.8,7.3,5.2,11.7Z"/>
    <path class="st0" d="M854.7,688.7l11-31.3,29.9-81.8c.9-2.5,2.3-5.2,4.8-5.9l-42.9,119.7c-.3.7-1,1.5-1.3,1.8s-1.6-1.8-1.3-2.4Z"/>
    <path class="st0" d="M855.4,699.7l-51.7-2.6-34.2-1.6,11.9-3.8,69.5,3.3c2.2.1,4.5,1.3,4.5,4.7Z"/>
    <path class="st0" d="M811.8,297.3c-3-3.7-5.5-6.4-9.6-9.2,10.8-7.3,18.4-16.8,27.1-26.9.6,3.6-.2,7.4-1.2,11.2-3.8,9-8.8,17.4-16.3,24.9Z"/>
    <path class="st0" d="M968.3,845.1c-11.1,3-21.6,4.1-28.6-6.9l17.6-10.5c3.8,5.3,7.4,10.6,11,17.4Z"/>
    <path class="st0" d="M823.1,683l-12.8-2.9c.6-5.8,2.4-9.9,5.7-13.8,8.2,2.1,14.8,5.8,20.1,12.6-3.6,2.5-8.4,5.1-13.1,4.1Z"/>
    <path class="st0" d="M218,463.2c-7.5-6.4-10.7-14.5-11.5-23.6l13.4-5.9c.6,10.2.5,19.3-1.9,29.5Z"/>
    <path class="st0" d="M235.9,491.2c-6.4-.2-11.2-6.9-13.3-12.2,9.8-1.6,19.1-1.2,28.3,1.6-3.6,4.8-8.4,10.8-15,10.6Z"/>
    <path class="st0" d="M852.2,677.7c-5.8.3-8.7-2.3-12.3-5.6l-5.6-5.2c2.8-3.8,5.7-6.6,10-9.6l10.6,11.7-2.7,8.6Z"/>
    <path class="st0" d="M291,471.5c-21.2-.3-29.2-28.9-22.7-45.5.1,8.6,1.3,16.4,5.2,23.8,4,8.6,9.7,15.5,17.5,21.7Z"/>
    <path class="st0" d="M899.4,688.9c-14.1,3.9-26.3,8.7-41,9.7l83.4-23.8c.5-.1,2,0,2.5,0s-.9,1.9-1.7,2.1l-43.2,12Z"/>
    <path class="st0" d="M788.2,286.9l-8,2.3c-2.1-4.1-4.8-6.8-9.2-9.2,3.8-3.9,8.2-7,13.4-7.9,3.6,4.4,4.4,9.6,3.8,14.8Z"/>
    <path class="st0" d="M220.1,426.4l-13.7,5.3c.3-8.1,4-18.4,14.1-18.5l-.4,13.3Z"/>
    <path class="st0" d="M975.5,843.1l-8.3-13.8,8-4.6c3.1,5.1,6,10,8.5,15.8-.5,2.5-6.1,3.8-8.1,2.6Z"/>
    <path class="st0" d="M736.8,319.8l-8-3.5,3.9-12.4c3.8,1.2,6.1,2.2,9.1,4l-5,12Z"/>
    <path class="st0" d="M236.9,437.3c-1.4-.6-3.4-1.4-4.4-1.5s-2.9,1.6-3.9,2.8l.4-20.2c5.8,5,7.8,12.3,7.9,18.9Z"/>
    <path class="st0" d="M849,690.8l-18.7-1.2c4.9-2.2,8.7-3.9,13-7l6.6,1.1-.9,7.1Z"/>
    <path class="st0" d="M321,427.1l-5.9,2.8c-2.9-7.2-6.5-12.5-12.1-18,7.7,2.8,12.4,7.9,18,15.1Z"/>
    <polygon class="st0" points="501.8 847.2 480.9 847.2 491.4 841 501.8 847.2"/>
    <path class="st0" d="M262.4,692.3c.7,1.6,0,4-1.5,4.3l-8.4-16.3c2-.7,4.7.6,5.6,2.6l4.3,9.5Z"/>
    <path class="st0" d="M232.5,411.8c8-1.3,11.7,11.5,10,17.2-2.2-6.6-5.5-11.8-10-17.2Z"/>
    <path class="st0" d="M820.6,689.2l-17-.5c-2.7,0-5-.3-7.2-1.4,8.8-.9,16.6-.6,24.2,2Z"/>
    <polygon class="st0" points="233.5 452.9 227.6 458.7 228.3 447.7 233.5 452.9"/>
    <path class="st0" d="M800.8,278.3c.5.9-2.1,2.7-3.5,3l-1.1-7c1.9,1,3.8,2.4,4.6,3.9Z"/>
    <path class="st0" d="M557.2,710.6l-2.4,6.2c-.4-4-.3-6.4,0-9.9.8.4,2.8,2.7,2.4,3.7Z"/>
    <path class="st0" d="M96.4,781.9c-2.8-1.9-4.1-4.8-3.9-7.7,2.9,1.7,4.7,4.8,3.9,7.7Z"/>
    <path class="st0" d="M152,784.3c-2.3-1-2.9-3.9-2-6.7,1.5,1.7,2.1,3.3,2,6.7Z"/>
    <path class="st0" d="M625,847h-7.1c0,0,3.5-2.3,3.5-2.3.8-.5,2.5,1.2,3.6,2.3Z"/>
    <path class="st0" d="M856.4,426.1l2.3-8c1,2.7,0,5.9-2.3,8Z"/>
    <path class="st1" d="M638.9,472.2c-2.6,10.9,7.4,12.3,7,15.3-.5,3.7-12.5-2-11.5-13.8.5-5.3,3.3-9.9,7.3-13.7-3-3.2-4.3-7-2.7-11.2,3.6-9.8,16-11.2,14.4-8.6s-9,3.8-10.7,10.2,1.5,5.9,4.2,8.7-6.1,4.8-8.1,13.1Z"/>
    <path class="st1" d="M720.4,418.3c4.2.2-1,8.6,4.9,14.8,4.8,5.1,10.6,2,12.6,4.7,1.6,2.1-5.8,5.8-15.3-1.5-4.1-3.2-3.2-9.1-5.5-13.1-2.1-3.6-8.2-5-8-10.5.2-4.5-.4-11.2,6.5-12.8l-2.3,8.4c-1.4,5.2,1.7,9.8,7.1,10.1Z"/>
    <path class="st1" d="M595.5,599l-1.2,1.6c-2.1,2.8-8.2-11,4.1-20.7-3-4.3-3.7-8.6-2.1-13.4,3.7-11,18.8-14.6,17.4-11.7-1.9,4-6.1,2.1-12.1,9.8-4.2,5.5-1.5,11,2.3,15.4-6.2,4.5-11.6,10.6-8.5,19Z"/>
    <path class="st1" d="M602.5,733.4c1.3,1.8-3,6.1-1.5,11.5,1.3,4.5,8.8,4.3,7.5,6.9s-8.5,0-10.4-4.1c-1.8-3.6-1.3-7.1-.4-11.1-5-.5-8.4-3.6-9.2-8.6s3.9-16.8,8.5-16.4c4.1.3-5.1,6.1-4.9,14.5.2,8.6,9,5.4,10.4,7.3Z"/>
    <path class="st1" d="M699.8,815.3c5.5-.7-5.4,11.9-18.4,5.6-7.3-3.5-13.8-11.2-10.5-12.6.6-.2,2.1.2,2.5.9,5.7,8.1,15.2,12,23.8,6.7.7-.4,2-.6,2.6-.6Z"/>
    <path class="st1" d="M608.3,771.5c1.9,18.2,15.5,15.4,15.7,18.9.2,5.8-20.5-2-19.3-19.8,0-.8,1.5-2.2,2-1.8s1.6,1.8,1.7,2.7Z"/>
    <path class="st1" d="M793.7,797.5c-7.8,6.9-17.5,3.5-16.4.9s2.3-1.5,3.2-1.3c10.3,2.6,13.4-7,15.3-11.9.2-.6,2.5-.6,2.7,0,1.3,4.1-2,9.7-4.8,12.2Z"/>
    <path class="st1" d="M662.7,498.5c3.3,4.3,9.2,0,10.8,2.6s-.8,2.9-1.5,3.2c-4.7,1.6-10.2.1-12.9-3.9-2.6-3.8-3.9-9.8.3-13.5,3.9,1.4-.9,6.1,3.3,11.5Z"/>
    <path class="st1" d="M671.1,384.6c-15.2,7-9.3,22.1-12.3,21.5-5.3-1.1-2.8-19.1,10.9-24.6.6-.2,2.6.3,2.7.8s-.5,2-1.4,2.4Z"/>
    <path class="st1" d="M699.3,548.9c1.1,16.5,9.3,12.7,10.6,16.8s-2.2,1.5-3.2,1.2c-8.1-2.2-11.8-13-10.2-19.7.1-.6,2.4-1.2,2.5-.7s.3,1.8.3,2.4Z"/>
    <path class="st1" d="M643.7,735.5c.5,9.7,8.1,8.3,7.9,11.2s-2.2,1.4-3,1.3c-6.8-1-9.4-9.9-7.6-14.2.2-.5,2.1-.9,2.2-.5s.5,1.7.5,2.3Z"/>
    <path class="st1" d="M398.5,326.2c7.5,17.3-5.9,32.9-10.9,31.9-1.2-.2-2.9-1.7-3.9-2.9-4.9-6.1-11-9.9-18.3-13.6-2.2-8.5,1.4-18.2,9.1-22.8,8.9-5.3,19.8-2.2,24,7.3ZM388.5,350.7c5.9-6,7.2-13.8,4.7-21-1.9-3.8-5.4-7.1-9.8-6.9-7.7.2-13.2,7.9-11.4,15,6.6,3.3,11.6,7.7,16.4,12.9Z"/>
    <path class="st1" d="M412.5,480.6c9.7-2-6.3,29.9-11.5,26.3-2.9-2,5.5-12.5,9.1-22.7.5-1.6,1.4-3.3,2.5-3.6Z"/>
    <path class="st1" d="M418.8,459.1c6.9,0,6.7,27,.9,25.9-.9-.2-2.2-2.2-2.2-3.3,0-6.7-.2-13.2-1-19.6s1.3-3.1,2.2-3.1Z"/>
    <path class="st1" d="M254.7,513.6c-.7-.3-1.7-1.7-1.7-2.4s2.3-1.6,3-1.3c8.1,2.9,18.7-.3,23-7.5s2.7-1.2,3.1-.7c3.1,4.9-12.8,17.5-27.4,11.8Z"/>
    <path class="st1" d="M420.2,442.6c5-5.2,14.6,19,8.4,21.7s-3.6-8.8-8.7-18.2c-.4-.8-.3-2.8.3-3.5Z"/>
    <path class="st1" d="M173.8,795.5c12.9,11.9,16.6,36.4,7.6,40.4-14.4,6.4-31.5-36.4-18.1-42.5,3.3-1.5,7.6-.6,10.5,2.1ZM170.6,798.6c-1-1-3.9-1.8-5.1-1.4-8.3,2.9,4.6,37.5,13.9,34.6,4.7-1.5,3.5-21-8.7-33.2Z"/>
    <path class="st1" d="M178.4,771.9c5.6,5.8,5.2,15.2.7,17-1.1.4-4.1-.1-5.1-1-4-3.5-5.5-9-3.5-14.2s2.3-2.8,3.4-3.1,3.7.4,4.6,1.3ZM177.2,784.8c1.6-3.5.4-7.7-2.5-9.7-1.2,3.7-.5,7.2,2.5,9.7Z"/>
    <path class="st1" d="M943.2,609c3.2,12.2-5.2,25.9-13.2,23.7s-7.8-18.4,2.8-28.1c1.3-1.2,5-1.2,6.6-.4,1.4.7,3.3,2.8,3.8,4.7ZM937.2,607.6c-4.8-1-13.3,17.1-6.6,20.9,6.1,3.4,13.4-19.5,6.6-20.9Z"/>
    <path class="st1" d="M170.1,599.9c9,4,14.9,18.9,8.3,24.3-1.5,1.2-5.2,1.5-7.1.7-7.9-3.3-12.1-11.1-11.1-19.8.3-2.1,2.7-4.3,4.4-5.2-1.7-1.6-8.1-8.3-4.7-10.1s1.8.4,2.4,1.1c7.1,8.3,7.9,3.3,7.9,9ZM168.4,603.7c-1-.4-3.5,0-4.1.6-4,5.2,4.4,18.9,11.1,17.5,3.8-.8,2.9-13.9-7-18.1Z"/>
    <path class="st1" d="M112.5,549.7c-3,2.7-6.6.4-8.2-1.6-1.9-2.5-2.7-6.9.9-8.8s5.8.6,7.1,2.5,2.1,6.1.2,7.9ZM110.5,545.8c-.8-1.6-3.1-3.3-3.8-2.6-.6,2.2,1.6,4.1,3.8,2.6Z"/>
    <path class="st1" d="M792.6,381.4c-3.1,2-6.9.4-7.6-2.8s.3-8.9,4-12,4.3-1.5,5.7-1,3,2.8,3.2,4.4c.6,4.5-1.5,9-5.3,11.4Z"/>
    <path class="st1" d="M131.6,830.5c-13.8,8.3-36.8-36.8-22.4-44.7,14-7.7,36.8,36.1,22.4,44.7ZM116.6,790.8c-1.1-1-4.5-1.6-5.5-.7s-2,3.1-1.9,4.4c.6,12,5.9,23,15,30.8,10.3,8.8,11.2-17.6-7.6-34.4Z"/>
    <path class="st1" d="M116.2,778.9c-6.8-5-6.7-17-1.4-18.9,1.1-.4,3.6.1,4.5.9,5.6,4.7,8.1,14.4,2.8,18.4s-4.4.7-5.9-.4ZM119.6,775.2c1.4-4.3-.1-8.1-3.3-10.8-1.5,4-.8,8.2,3.3,10.8Z"/>
    <path class="st1" d="M292,438.8c4.7,6,5.4,14.6.8,16.7-1.1.5-4.3.2-5.3-.7-4.8-4.2-6.7-11.4-3.2-16.8,1.5-2.4,6.1-1.3,7.7.8Z"/>
    <path class="st0" d="M388.5,350.7c-4.8-5.2-9.8-9.6-16.4-12.9-1.9-7.1,3.6-14.8,11.4-15,4.5-.1,7.9,3.1,9.8,6.9,2.5,7.2,1.2,15-4.7,21Z"/>
    <path class="st0" d="M170.6,798.6c12.3,12.3,13.4,31.7,8.7,33.2-9.2,2.9-22.2-31.7-13.9-34.6,1.2-.4,4.2.4,5.1,1.4Z"/>
    <path class="st0" d="M177.2,784.8c-3-2.5-3.6-5.9-2.5-9.7,2.9,1.9,4.1,6.2,2.5,9.7Z"/>
    <path class="st0" d="M162.6,777.5c-3.5-2.6-4-6.3-2.9-9.7,2.7,2.4,3.9,5.9,2.9,9.7Z"/>
    <path class="st0" d="M937.2,607.6c6.8,1.4-.5,24.4-6.6,20.9-6.7-3.8,1.7-21.9,6.6-20.9Z"/>
    <path class="st0" d="M168.4,603.7c9.9,4.3,10.8,17.3,7,18.1-6.7,1.4-15-12.3-11.1-17.5.6-.7,3.1-1.1,4.1-.6Z"/>
    <path class="st0" d="M110.5,545.8c-2.2,1.5-4.4-.4-3.8-2.6.7-.7,2.9,1,3.8,2.6Z"/>
    <path class="st0" d="M116.6,790.8c18.8,16.8,17.9,43.2,7.6,34.4-9-7.7-14.3-18.7-15-30.8,0-1.3,1.1-3.6,1.9-4.4s4.3-.3,5.5.7Z"/>
    <path class="st0" d="M119.6,775.2c-4.1-2.6-4.8-6.8-3.3-10.8,3.2,2.7,4.6,6.5,3.3,10.8Z"/>
    <path class="st0" d="M104,769.5c-3.8-2.2-4.9-6.6-4.2-10.9,3.4,2.1,5.1,6.2,4.2,10.9Z"/>
    <path class="st0" d="M229.3,408.4s11,10.7,13.2,20.7c0,0,1.6,5.2,1.3,6.9,0,0,1.2-1.4,3.4-1.8s1.6-12.6,1.6-12.6l-1.9-11.5-6.8-6.6-10.9,4.9Z"/>
    <path class="st0" d="M268.4,426s3.9-10.5,16.1-13.8c12.2-3.3-5.8,16.6-5.8,16.6l-1.7,12.2,6.6,14.4,15.5,13.8s-7.2,5.2-18.8-.6c-11.6-5.8-11.9-42.7-11.9-42.7Z"/>
    <path class="st0" d="M295.1,405.5s7.3,5.1,13.1,12.4c5.8,7.3,6.9,12,6.9,12l13.4-5.2-4.3-27.7-15.9-17.1-13.1,25.6Z"/>
    <path class="st0" d="M300.6,476.8s5,.8,13.9-13.8c9-14.6,9.5-4.1,9.5-4.1l.7-16.3-.7-8.3,10.5-4,14.8,28.4-18.8,20.4-20.1,3.3-9.8-5.6Z"/>
    <path class="st1" d="M277.5,415.4s8.3-5.7,17.9-.3c9.6,5.4-1.2-7-1.2-7h-11.3l-5.4,7.3Z"/>
  </g>
  <ellipse class="st1" cx="234.2" cy="444.2" rx="7.1" ry="8.9"/>
  <path class="st0" d="M297.7,477.8s13.1-3.1,18.7-20.3c0,0,3.2-11.1.5-19.9l7.1-3.2,6.3,32-15,20.3-17.5-5.1v-3.8Z"/>
</svg>